<?xml version="1.0" standalone="no"?>
<!DOCTYPE svg PUBLIC "-//W3C//DTD SVG 1.1//EN" "http://www.w3.org/Graphics/SVG/1.1/DTD/svg11.dtd" >
<svg xmlns="http://www.w3.org/2000/svg">
<metadata>Generated by IcoMoon</metadata>
<defs>
<font id="icomoon" horiz-adv-x="1024">
<font-face units-per-em="1024" ascent="960" descent="-64" />
<missing-glyph horiz-adv-x="1024" />
<glyph unicode="&#x20;" horiz-adv-x="512" d="" />
<glyph unicode="&#xe900;" d="M14.336 570.88c69.632 274.432 346.112 442.368 620.544 374.784 274.432-69.632 442.368-346.112 374.784-620.544-69.632-274.432-346.112-442.368-620.544-374.784-274.432 69.632-442.368 346.112-374.784 620.544z" />
<glyph unicode="&#xe901;" glyph-name="alert-icon" d="M918.297-4.542h-829.11c-33.032 0-62.761 19.819-79.277 49.548s-16.516 62.761 3.303 89.187l412.903 713.497c16.516 29.729 46.245 46.245 75.974 46.245 33.032 0 62.761-19.819 75.974-49.548l416.206-713.497c16.516-33.032 13.213-66.065-3.303-92.49-13.213-26.426-42.942-42.942-72.671-42.942zM502.090 827.871c-3.303 0-13.213 0-19.819-9.91v-3.303l-412.903-716.8c-6.606-9.91-3.303-19.819 0-23.123 3.303-6.606 9.91-13.213 19.819-13.213h829.11c9.91 0 16.516 6.606 19.819 9.91 6.606 6.606 6.606 19.819 0 26.426l-416.206 716.8c-6.606 13.213-13.213 13.213-19.819 13.213zM455.845 831.174v0 0zM535.123 345.6v198.194c0 19.819-13.213 33.032-33.032 33.032s-33.032-13.213-33.032-33.032v-198.194c0-19.819 13.213-33.032 33.032-33.032s33.032 13.213 33.032 33.032zM525.213 173.832c6.606 6.606 9.91 13.213 9.91 23.123s-3.303 16.516-9.91 23.123c-13.213 13.213-33.032 13.213-46.245 0-6.606-6.606-9.91-16.516-9.91-23.123 0-9.91 3.303-16.516 9.91-23.123s13.213-9.91 23.123-9.91 16.516 3.303 23.123 9.91z" />
<glyph unicode="&#xe902;" d="M339.968 931.328c-155.648-57.344-282.624-186.368-325.632-360.448-63.488-258.048 79.872-518.144 325.632-606.208v966.656z" />
<glyph unicode="&#xe903;" glyph-name="arrow-dx-green" d="M658.286 45.714c-7.314 0-18.286 3.657-25.6 10.971-14.629 14.629-14.629 36.571-3.657 51.2l274.286 303.543h-866.743c-21.943 0-36.571 14.629-36.571 36.571s14.629 36.571 36.571 36.571h870.4l-274.286 303.543c-14.629 14.629-10.971 36.571 3.657 51.2s36.571 10.971 51.2-3.657l347.429-387.657-351.086-391.314c-7.314-7.314-14.629-10.971-25.6-10.971z" />
<glyph unicode="&#xe904;" glyph-name="arrow-dx-red" d="M658.286 45.714c-7.314 0-18.286 3.657-25.6 10.971-14.629 14.629-14.629 36.571-3.657 51.2l274.286 303.543h-866.743c-21.943 0-36.571 14.629-36.571 36.571s14.629 36.571 36.571 36.571h870.4l-274.286 303.543c-14.629 14.629-10.971 36.571 3.657 51.2s36.571 10.971 51.2-3.657l347.429-387.657-351.086-391.314c-7.314-7.314-14.629-10.971-25.6-10.971z" />
<glyph unicode="&#xe905;" d="M684.032 929.28v-964.608c155.648 57.344 282.624 188.416 325.632 360.448 63.488 258.048-79.872 518.144-325.632 604.16z" />
<glyph unicode="&#xe906;" glyph-name="alert-close" horiz-adv-x="1028" d="M573.44 448l442.368 442.368c16.384 16.384 16.384 40.96 0 57.344 0 0 0 0 0 0-16.384 16.384-40.96 16.384-57.344 0l-442.368-442.368-446.464 442.368c-16.384 16.384-40.96 16.384-57.344 0s-16.384-40.96 0-57.344c0 0 0 0 0 0l446.464-442.368-446.464-442.368c-16.384-16.384-16.384-40.96 0-57.344 0 0 0 0 0 0 16.384-16.384 40.96-16.384 57.344 0 0 0 0 0 0 0l446.464 442.368 446.464-442.368c16.384-16.384 40.96-12.288 57.344 4.096 12.288 16.384 12.288 40.96 0 53.248l-446.464 442.368z" />
<glyph unicode="&#xe907;" glyph-name="ico-in" horiz-adv-x="1016" d="M508.121 960c-283.152 2.586-513.293-224.97-515.879-508.121-1.293-283.152 226.263-513.293 508.121-515.879 283.152-2.586 513.293 224.97 515.879 508.121 0 1.293 0 2.586 0 3.879 1.293 281.859-226.263 510.707-508.121 512zM373.657 195.879h-121.535v367.192h121.535v-367.192zM312.889 613.495v0c-34.909-2.586-65.939 24.566-67.232 59.475 0 1.293 0 2.586 0 3.879 0 36.202 27.152 63.354 68.525 63.354 34.909 2.586 64.646-23.273 67.232-58.182 0-1.293 0-3.879 0-5.172 0-34.909-25.859-63.354-68.525-63.354v0zM811.96 195.879h-121.535v196.525c0 49.131-18.101 82.747-62.061 82.747-28.444 0-53.010-18.101-62.061-43.96-2.586-10.343-3.879-20.687-3.879-31.030v-204.283h-121.535c0 0 1.293 332.283 0 367.192h121.535v-51.717c21.98 38.788 64.646 62.061 109.899 60.768 80.162 0 139.636-53.010 139.636-165.495v-210.747z" />
<glyph unicode="&#xe908;" d="M14.336 570.88c69.632 274.432 346.112 442.368 620.544 374.784 274.432-69.632 442.368-346.112 374.784-620.544-69.632-274.432-346.112-442.368-620.544-374.784-274.432 69.632-442.368 346.112-374.784 620.544z" />
<glyph unicode="&#xe909;" glyph-name="ico-info-gray-full" d="M512 960c-283.386 0-512-228.614-512-512s228.614-512 512-512 512 228.614 512 512-228.614 512-512 512zM559.628 186.047c0-26.195-21.433-47.628-47.628-47.628s-47.628 21.433-47.628 47.628v285.767c0 26.195 21.433 47.628 47.628 47.628s47.628-21.433 47.628-47.628v-285.767zM559.628 648.037c0-26.195-21.433-47.628-47.628-47.628s-47.628 21.433-47.628 47.628v47.628c0 26.195 21.433 47.628 47.628 47.628s47.628-21.433 47.628-47.628v-47.628z" />
<glyph unicode="&#xe90a;" glyph-name="ico-insta" d="M664.462 686.933h-304.924c-47.787 0-88.747-38.684-88.747-88.747v-304.924c0-47.787 38.684-88.747 88.747-88.747h304.924c47.787 0 88.747 38.684 88.747 88.747v307.2c0 47.787-40.96 86.471-88.747 86.471zM512 288.711c-86.471 0-159.289 70.542-159.289 159.289 0 86.471 70.542 159.289 159.289 159.289 86.471 0 159.289-70.542 159.289-159.289s-72.818-159.289-159.289-159.289zM675.84 573.156c-20.48 0-36.409 15.929-36.409 38.684s15.929 38.684 38.684 38.684c20.48 0 36.409-15.929 36.409-38.684-2.276-22.756-18.204-38.684-38.684-38.684v0 0zM512 539.022c-50.062 0-91.022-40.96-91.022-91.022s40.96-91.022 91.022-91.022 91.022 40.96 91.022 91.022-40.96 91.022-91.022 91.022zM512 960c-282.169 0-512-229.831-512-512s229.831-512 512-512 512 229.831 512 512-229.831 512-512 512v0zM819.2 293.262c0-86.471-70.542-154.738-154.738-154.738h-304.924c-86.471 0-154.738 70.542-154.738 154.738v307.2c0 84.196 68.267 154.738 154.738 154.738h304.924c86.471 0 154.738-70.542 154.738-154.738v-307.2z" />
<glyph unicode="&#xe90b;" glyph-name="ico-menu" d="M37.236 838.982h949.527c20.48 0 37.236-16.756 37.236-37.236v0c0-20.48-16.756-37.236-37.236-37.236h-949.527c-20.48 0-37.236 16.756-37.236 37.236v0c0 20.48 16.756 37.236 37.236 37.236zM37.236 485.236h949.527c20.48 0 37.236-16.756 37.236-37.236v0c0-20.48-16.756-37.236-37.236-37.236h-949.527c-20.48 0-37.236 16.756-37.236 37.236v0c0 20.48 16.756 37.236 37.236 37.236zM37.236 131.491h949.527c20.48 0 37.236-16.756 37.236-37.236v0c0-20.48-16.756-37.236-37.236-37.236h-949.527c-20.48 0-37.236 16.756-37.236 37.236v0c0 20.48 16.756 37.236 37.236 37.236z" />
<glyph unicode="&#xe90c;" glyph-name="ico-notify" d="M843.581 682.057c-29.257 0-63.39 9.752-87.771 29.257-29.257 24.381-43.886 53.638-48.762 92.648-4.876 34.133 9.752 68.267 29.257 97.524v0c48.762 58.514 131.657 63.39 190.171 14.629s63.39-131.657 14.629-190.171c-24.381-29.257-53.638-43.886-92.648-48.762 4.876 4.876 0 4.876-4.876 4.876zM799.695 852.724c-9.752-14.629-14.629-29.257-14.629-43.886s9.752-29.257 19.505-39.010c14.629-9.752 29.257-14.629 43.886-14.629s29.257 9.752 39.010 19.505c19.505 24.381 19.505 63.39-9.752 87.771-19.505 19.505-58.514 14.629-78.019-9.752v0zM672.914-29.867c-9.752 0-14.629 4.876-24.381 9.752l-599.771 497.371c-14.629 9.752-19.505 29.257-9.752 48.762 9.752 14.629 29.257 19.505 43.886 14.629 97.524-39.010 268.19 131.657 316.952 195.048 112.152 121.905 273.067 136.533 399.848 34.133 58.514-48.762 92.648-112.152 102.4-185.295s-14.629-146.286-68.267-209.676c-53.638-63.39-190.171-263.314-131.657-351.086 9.752-14.629 4.876-34.133-4.876-48.762-4.876-4.876-14.629-4.876-24.381-4.876zM175.543 472.381l443.733-370.59c14.629 141.41 141.41 302.324 160.914 326.705 39.010 43.886 53.638 102.4 48.762 156.038s-29.257 102.4-73.143 136.533c0 0 0 0 0 0-97.524 78.019-209.676 68.267-297.448-24.381-14.629-29.257-151.162-190.171-282.819-224.305zM375.467 23.771c-53.638 0-107.276 19.505-146.286 53.638-48.762 39.010-78.019 92.648-82.895 156.038-4.876 58.514 14.629 121.905 53.638 170.667 14.629 14.629 34.133 19.505 53.638 4.876 14.629-14.629 19.505-34.133 4.876-53.638-29.257-34.133-39.010-73.143-34.133-117.029s24.381-78.019 53.638-107.276c34.133-29.257 73.143-39.010 117.029-34.133s78.019 24.381 107.276 53.638c14.629 14.629 34.133 19.505 53.638 4.876 14.629-14.629 19.505-34.133 4.876-53.638-39.010-48.762-92.648-78.019-156.038-82.895-19.505 4.876-24.381 4.876-29.257 4.876z" />
<glyph unicode="&#xe90d;" glyph-name="ico-question" d="M512-64c-283.307 0-512 228.693-512 512s228.693 512 512 512c283.307 0 512-228.693 512-512s-228.693-512-512-512zM512 891.733c-245.76 0-443.733-197.973-443.733-443.733s197.973-443.733 443.733-443.733c245.76 0 443.733 197.973 443.733 443.733s-197.973 443.733-443.733 443.733zM453.973 328.533c-3.413 20.48-3.413 40.96 3.413 58.027 3.413 17.067 10.24 34.133 20.48 47.787 6.827 13.653 17.067 27.307 27.307 40.96s20.48 23.893 30.72 37.547 17.067 23.893 23.893 37.547 10.24 27.307 10.24 40.96c0 20.48-6.827 40.96-20.48 54.613-13.653 17.067-34.133 23.893-58.027 23.893-17.067 0-34.133-3.413-51.2-13.653-17.067-6.827-30.72-20.48-40.96-34.133l-37.547 34.133c17.067 20.48 37.547 34.133 58.027 47.787s47.787 20.48 78.507 20.48c40.96 0 75.093-10.24 102.4-34.133 23.893-23.893 37.547-54.613 37.547-95.573 0-17.067-3.413-34.133-10.24-47.787s-13.653-27.307-23.893-40.96c-10.24-13.653-20.48-27.307-30.72-37.547-10.24-13.653-20.48-27.307-30.72-40.96s-17.067-27.307-20.48-44.373-6.827-34.133-3.413-51.2h-64.853c0 0 0-3.413 0-3.413zM436.907 209.067c0 17.067 3.413 27.307 13.653 37.547s20.48 13.653 34.133 13.653 23.893-3.413 34.133-13.653 13.653-20.48 13.653-37.547c0-13.653-3.413-27.307-13.653-37.547s-20.48-13.653-34.133-13.653-23.893 3.413-34.133 13.653c-6.827 10.24-13.653 23.893-13.653 37.547z" />
<glyph unicode="&#xe90e;" glyph-name="ico-search-big" d="M972.8-64c-13.653 0-27.307 3.413-37.547 13.653l-303.787 303.787c-64.853-51.2-150.187-81.92-238.933-81.92-215.040 3.413-392.533 180.907-392.533 395.947s177.493 392.533 392.533 392.533c215.040 0 392.533-177.493 392.533-392.533 0-88.747-30.72-174.080-81.92-238.933l303.787-303.787c20.48-20.48 20.48-51.2 0-71.68-6.827-13.653-20.48-17.067-34.133-17.067zM392.533 857.6c-160.427 0-290.133-129.707-290.133-290.133s129.707-290.133 290.133-290.133c160.427 0 290.133 129.707 290.133 290.133s-129.707 290.133-290.133 290.133z" />
<glyph unicode="&#xe90f;" glyph-name="ico-search" d="M988.69-64c-10.593 0-17.655 3.531-24.717 10.593l-328.386 324.855c-67.090-52.966-151.834-88.276-247.172-88.276-215.393 0-388.414 173.021-388.414 388.414s173.021 388.414 388.414 388.414 388.414-173.021 388.414-388.414c0-95.338-35.31-180.083-88.276-247.172l328.386-328.386c14.124-14.124 14.124-35.31 0-49.434-10.593-7.062-17.655-10.593-28.248-10.593zM388.414 889.379c-176.552 0-317.793-141.241-317.793-317.793s141.241-317.793 317.793-317.793c176.552 0 317.793 141.241 317.793 317.793s-141.241 317.793-317.793 317.793z" />
<glyph unicode="&#xe910;" glyph-name="ico-select-dark" d="M512 160c-12.8 0-25.6 6.4-38.4 19.2l-454.4 454.4c-25.6 25.6-25.6 57.6 0 83.2 19.2 25.6 51.2 25.6 76.8 6.4 0 0 0 0 6.4-6.4l409.6-409.6 416 416c19.2 19.2 57.6 19.2 76.8 0 0 0 0 0 6.4-6.4 19.2-25.6 19.2-64 0-83.2l-460.8-454.4c-12.8-12.8-25.6-19.2-38.4-19.2z" />
<glyph unicode="&#xe911;" glyph-name="ico-select-green" d="M512 160c-12.8 0-25.6 6.4-38.4 19.2l-454.4 454.4c-25.6 25.6-25.6 57.6 0 83.2 19.2 25.6 51.2 25.6 76.8 6.4 0 0 0 0 6.4-6.4l409.6-409.6 416 416c19.2 19.2 57.6 19.2 76.8 0 0 0 0 0 6.4-6.4 19.2-25.6 19.2-64 0-83.2l-460.8-454.4c-12.8-12.8-25.6-19.2-38.4-19.2z" />
<glyph unicode="&#xe912;" d="M985.088 642.56h-395.264v-77.824h421.888c-8.192 26.624-16.384 53.248-26.624 77.824zM884.736 800.256h-294.912v-77.824h356.352c-18.432 26.624-38.912 53.248-61.44 77.824zM141.312 93.696h739.328c22.528 24.576 43.008 49.152 61.44 77.824h-862.208c18.432-26.624 38.912-53.248 61.44-77.824zM634.88 945.664c-16.384 4.096-30.72 6.144-47.104 8.192v-75.776h200.704c-45.056 30.72-96.256 53.248-153.6 67.584zM1021.952 486.912h-432.128v-79.872h434.176c0 26.624 0 53.248-2.048 79.872zM38.912 251.392h944.128c10.24 24.576 18.432 49.152 24.576 73.728 0 2.048 0 2.048 0 4.096h-993.28c6.144-26.624 14.336-53.248 24.576-77.824zM389.12-49.664c30.72-8.192 61.44-12.288 90.112-14.336h65.536c86.016 6.144 169.984 32.768 241.664 77.824h-548.864c45.056-26.624 96.256-49.152 151.552-63.488z" />
<glyph unicode="&#xe913;" glyph-name="ico-tw" horiz-adv-x="1016" d="M508.121 960c-283.152 2.586-513.293-224.97-515.879-508.121s224.97-513.293 508.121-515.879 513.293 224.97 515.879 508.121c0 1.293 0 2.586 0 3.879 1.293 281.859-226.263 510.707-508.121 512zM758.949 528.162c0-5.172 0-10.343 0-15.515 0-161.616-122.828-347.798-345.212-347.798-65.939 0-130.586 18.101-186.182 54.303 9.051-1.293 19.394-1.293 28.444-1.293 54.303 0 107.313 18.101 151.273 51.717-51.717 1.293-98.263 34.909-113.778 85.333 7.758-1.293 15.515-2.586 23.273-2.586 10.343 0 21.98 1.293 32.323 5.172-56.889 11.636-96.97 60.768-96.97 118.949v2.586c16.808-10.343 36.202-15.515 55.596-15.515-53.010 36.202-69.818 107.313-37.495 162.909 62.061-76.283 152.566-122.828 250.828-128-2.586 9.051-2.586 19.394-2.586 28.444 0 67.232 54.303 121.535 121.535 121.535 0 0 0 0 0 0 33.616 0 65.939-14.222 89.212-38.788 27.152 6.465 53.010 16.808 77.576 29.737-9.051-28.444-28.444-51.717-53.010-67.232 24.566 2.586 47.838 9.051 69.818 19.394-20.687-24.566-41.374-46.545-64.646-63.354z" />
<glyph unicode="&#xe914;" glyph-name="ico-user" d="M431.012 900.027h104.482c69.39-8.029 136.996-32.217 195.482-70.381 61.658-39.949 113.304-95.064 149.090-159.102 34.199-60.964 54.124-129.958 57.594-199.744 3.668-71.472-9.913-143.737-39.255-208.963-37.471-84.061-101.31-156.029-180.216-203.412-58.089-35.191-124.208-56.9-191.814-63.442h-86.242c-78.113 7.435-154.145 35.389-218.282 80.592-61.063 42.824-111.322 100.814-144.827 167.528-37.57 74.148-54.124 158.804-47.284 241.676 5.948 74.148 30.433 146.711 70.679 209.261 35.092 54.719 82.079 101.706 136.798 136.798 58.288 37.471 125.1 61.262 193.797 69.192zM473.538 842.235c-34.199-0.793-68.3-6.146-101.111-15.761-60.469-17.645-116.575-50.060-161.976-93.677-46.591-44.509-81.88-100.616-101.904-161.778-20.222-61.361-24.98-127.777-13.68-191.418 12.292-70.381 44.211-137.194 91.397-190.922 45.5-52.34 105.275-92.19 170.997-114.295 67.408-22.8 140.961-26.864 210.351-11.499 55.512 12.094 108.348 36.479 153.65 70.778 40.544 30.73 75.14 69.39 101.111 113.106 30.928 52.043 49.564 111.222 54.124 171.691 5.254 68.597-7.93 138.582-37.867 200.537-32.019 66.912-83.566 124.407-146.611 163.562-64.929 40.643-141.853 61.658-218.48 59.676zM452.424 708.51c12.788 2.379 25.773 4.064 38.858 3.073 7.336-0.198 14.473-1.685 21.709-2.776 21.808-5.551 42.625-15.662 59.477-30.829 23.097-20.123 39.552-48.077 45.104-78.312 3.271-17.645 1.983-35.587 2.28-53.43-0.198-16.852 0.496-33.605-0.496-50.457-1.388-19.33-7.336-38.165-16.455-55.314 15.861-8.129 30.829-18.041 43.518-30.631 22.007-21.808 39.652-48.177 49.564-77.618 3.965-11.499 7.732-23.593 6.344-35.885-1.685-16.257-10.409-31.721-23.494-41.436-36.678-26.864-78.708-46.095-122.721-57.197-19.627-4.659-39.552-8.029-59.775-8.922-41.039-1.784-82.475 4.857-120.838 19.627-27.459 10.409-53.43 24.683-77.42 41.634-6.84 4.163-13.68 8.723-18.636 15.068-8.822 11.003-12.589 25.377-12.49 39.255 0.198 13.482 5.65 26.071 11.003 38.165 18.636 39.652 50.952 71.868 88.225 94.172-9.814 16.356-16.059 34.893-18.339 53.926-1.487 13.878-0.793 27.756-0.991 41.634 0.198 17.546-0.397 35.092 0.397 52.538 2.875 46.789 32.514 90.207 73.851 111.817 9.913 5.056 20.52 8.922 31.325 11.895zM472.844 650.52c-12.193-1.586-23.791-6.443-33.605-13.779-14.968-11.202-26.666-27.36-30.333-45.996-2.28-10.706-1.388-21.808-1.586-32.712 0.099-18.141-0.099-36.281 0.099-54.422 0.198-15.861 6.047-31.523 16.059-43.815 5.353-6.542 11.4-12.887 18.834-16.951 2.875-1.685 5.551-3.767 8.624-5.353 13.68-7.336 29.838-8.922 45.004-6.542 17.248 2.577 32.712 12.49 44.013 25.377 9.715 10.805 16.455 24.485 18.141 38.958 1.289 10.21 0.595 20.619 0.793 30.829 0 16.555 0 33.010 0 49.564 0 9.516-1.883 18.934-5.452 27.756-6.84 16.059-19.231 29.441-34.199 38.165-13.779 8.327-30.532 10.904-46.392 8.922zM524.788 374.546c-20.52-6.443-42.625-7.336-63.839-3.965-18.24 3.073-35.587 10.508-51.15 20.421-18.735-8.129-35.191-20.718-49.564-35.29-14.671-14.77-26.467-32.712-32.911-52.637 19.33-13.878 39.85-26.17 61.757-35.389 18.141-7.633 37.173-12.788 56.404-16.257 32.019-4.362 64.929-2.974 96.254 4.857 35.191 9.021 68.894 24.287 98.435 45.5 1.586 0.991 0.297 2.974 0.099 4.263-5.948 20.817-17.348 39.949-32.217 55.611-11.598 12.788-26.864 21.511-42.13 29.045-1.19 0.397-2.379 0.694-3.569 0.793-11.697-6.741-24.287-12.887-37.57-16.951z" />
<glyph unicode="&#xe915;" glyph-name="ico-yt" horiz-adv-x="1016" d="M508.121 960c-283.152 2.586-513.293-224.97-515.879-508.121-1.293-283.152 226.263-513.293 508.121-515.879 283.152-2.586 513.293 224.97 515.879 508.121 0 1.293 0 2.586 0 3.879 1.293 281.859-226.263 510.707-508.121 512zM371.071 202.343v444.768l386.586-227.556-386.586-217.212z" />
<glyph unicode="&#xe916;" glyph-name="icon_dropdown" d="M512 166.4c-12.8 0-21.333 4.267-29.867 12.8l-469.333 473.6c-17.067 17.067-17.067 42.667 0 59.733s42.667 17.067 59.733 0l439.467-443.733 439.467 443.733c17.067 17.067 42.667 17.067 59.733 0s17.067-42.667 0-59.733l-469.333-473.6c-8.533-8.533-17.067-12.8-29.867-12.8z" />
<glyph unicode="&#xe917;" glyph-name="icon-arrival" d="M853.333 288.711c-40.96 0-79.644 6.827-106.951 11.378l-13.653 2.276c-127.431 22.756-243.484 40.96-361.813 61.44-65.991 11.378-131.982 22.756-204.8 36.409-93.298 13.653-159.289 95.573-152.462 191.147l20.48 193.422c2.276 11.378 6.827 22.756 18.204 31.858 9.102 6.827 22.756 11.378 34.133 9.102l125.156-18.204c18.204-2.276 31.858-13.653 36.409-31.858l36.409-118.329 91.022-13.653-22.756 195.698c-2.276 13.653 2.276 27.307 13.653 36.409 9.102 9.102 22.756 13.653 36.409 13.653l97.849-11.378c13.653-2.276 25.031-9.102 34.133-20.48l172.942-275.342 177.493-36.409c52.338-11.378 95.573-40.96 116.053-79.644 15.929-31.858 15.929-65.991 0-100.124-27.307-61.44-91.022-77.369-147.911-77.369zM118.329 730.169l-15.929-145.636c-2.276-45.511 29.582-86.471 77.369-93.298 72.818-11.378 138.809-25.031 204.8-36.409 118.329-20.48 232.107-40.96 361.813-61.44l15.929-2.276c40.96-6.827 136.533-25.031 154.738 11.378 4.551 11.378 4.551 18.204 2.276 22.756-6.827 13.653-29.582 27.307-54.613 31.858l-195.698 40.96c-11.378 2.276-22.756 9.102-29.582 20.48l-172.942 275.342-20.48 2.276 22.756-197.973c2.276-13.653-2.276-27.307-13.653-38.684-11.378-9.102-25.031-13.653-38.684-11.378l-177.493 29.582c-18.204 2.276-31.858 15.929-36.409 31.858l-34.133 113.778-50.062 6.827zM882.916 6.542h-420.978c-25.031 0-45.511 20.48-45.511 45.511s20.48 45.511 45.511 45.511h418.702c25.031 0 45.511-20.48 45.511-45.511s-20.48-45.511-43.236-45.511z" />
<glyph unicode="&#xe918;" glyph-name="icon-calendar" d="M682.667 418.418h-386.844c-25.031 0-45.511-20.48-45.511-45.511s20.48-45.511 45.511-45.511h386.844c25.031 0 45.511 20.48 45.511 45.511s-20.48 45.511-45.511 45.511zM534.756 236.373h-227.556c-25.031 0-45.511-20.48-45.511-45.511s20.48-45.511 45.511-45.511h227.556c25.031 0 45.511 20.48 45.511 45.511s-20.48 45.511-45.511 45.511zM841.956 841.671h-102.4v54.613c0 25.031-20.48 45.511-45.511 45.511s-45.511-20.48-45.511-45.511v-56.889h-273.067v56.889c0 25.031-20.48 45.511-45.511 45.511s-45.511-20.48-45.511-45.511v-56.889h-102.4c-63.716 0-113.778-50.062-113.778-113.778v-659.911c0-63.716 50.062-113.778 113.778-113.778h659.911c63.716 0 113.778 50.062 113.778 113.778v659.911c0 63.716-50.062 116.053-113.778 116.053zM182.044 750.649h102.4v-27.307c0-25.031 20.48-45.511 45.511-45.511s45.511 20.48 45.511 45.511v27.307h273.067v-27.307c0-25.031 20.48-45.511 45.511-45.511s45.511 20.48 45.511 45.511v27.307h102.4c13.653 0 22.756-9.102 22.756-22.756v-109.227h-705.422v109.227c0 11.378 9.102 22.756 22.756 22.756zM841.956 45.227h-659.911c-13.653 0-22.756 9.102-22.756 22.756v457.387h705.422v-459.662c0-11.378-9.102-20.48-22.756-20.48z" />
<glyph unicode="&#xe919;" glyph-name="icon-departure" d="M238.933 283.733c-68.267 0-132.267 40.533-157.867 108.8l-59.733 172.8c-4.267 10.667-2.133 23.467 2.133 32 4.267 10.667 14.933 17.067 25.6 21.333l113.067 34.133c14.933 4.267 34.133 0 44.8-12.8l76.8-85.333 83.2 23.467-98.133 157.867c-6.4 10.667-8.533 25.6-4.267 36.267 4.267 12.8 14.933 21.333 25.6 25.6l87.467 29.867c12.8 4.267 25.6 2.133 36.267-4.267l256-166.4 164.267 38.4c49.067 10.667 98.133 4.267 130.133-21.333 25.6-21.333 40.533-49.067 40.533-85.333 2.133-104.533-128-138.667-189.867-155.733l-12.8-4.267c-117.333-32-224-61.867-332.8-89.6-59.733-17.067-121.6-32-187.733-51.2-10.667-2.133-27.733-4.267-42.667-4.267zM117.333 550.4l44.8-130.133c14.933-40.533 59.733-61.867 102.4-49.067 66.133 17.067 128 34.133 187.733 51.2 108.8 29.867 215.467 57.6 332.8 89.6l12.8 4.267c38.4 10.667 125.867 34.133 125.867 70.4 0 10.667-4.267 17.067-8.533 19.2-10.667 8.533-36.267 10.667-57.6 6.4l-183.467-42.667c-10.667-2.133-23.467 0-32 6.4l-256 166.4-17.067-6.4 98.133-160c6.4-10.667 8.533-25.6 4.267-38.4s-14.933-21.333-27.733-25.6l-162.133-46.933c-14.933-4.267-32 0-42.667 12.8l-76.8 85.333-44.8-12.8zM499.2 64h-392.533c-23.467 0-42.667 19.2-42.667 42.667s19.2 42.667 42.667 42.667h392.533c23.467 0 42.667-19.2 42.667-42.667s-19.2-42.667-42.667-42.667z" />
<glyph unicode="&#xe91a;" glyph-name="icon-history-grey" d="M526.629 601.6c-87.771 0-153.6-73.143-153.6-153.6 0-87.771 73.143-153.6 153.6-153.6 87.771 0 153.6 65.829 153.6 153.6v0c0 87.771-73.143 153.6-153.6 153.6zM607.086 448c0-43.886-36.571-80.457-80.457-80.457s-80.457 36.571-80.457 80.457 36.571 80.457 80.457 80.457v0 0c43.886 0 80.457-36.571 80.457-80.457v0zM1053.257 448c0 7.314 0 14.629 0 14.629-58.514 138.971-168.229 248.686-307.2 307.2-292.571 117.029-621.714-21.943-746.057-307.2v0 0c0 0 0 0 0-7.314s0-7.314 0-7.314v-7.314c0 0 0 0 0-7.314v0 0c102.4-204.8 299.886-343.771 526.629-351.086v0c226.743 14.629 424.229 146.286 519.314 351.086 7.314 0 7.314 7.314 7.314 14.629zM716.8 184.686c-248.686-102.4-533.943 14.629-643.657 263.314 51.2 117.029 146.286 204.8 263.314 256 248.686 102.4 533.943-7.314 643.657-256-51.2-117.029-146.286-212.114-263.314-263.314z" />
<glyph unicode="&#xe91b;" glyph-name="icon-reverse-green" d="M963.972 536.276h-903.945c-28.248 0-52.966 24.717-52.966 52.966s24.717 52.966 52.966 52.966h762.703l-95.338 84.745c-17.655 17.655-21.186 52.966 0 74.152s52.966 24.717 74.152 3.531l197.738-176.552c17.655-14.124 21.186-38.841 14.124-60.028-7.062-17.655-28.248-31.779-49.434-31.779zM257.766 77.241c-14.124 0-24.717 3.531-35.31 14.124l-197.738 176.552c-17.655 14.124-21.186 38.841-14.124 60.028s28.248 35.31 49.434 35.31h900.414c28.248 0 52.966-24.717 52.966-52.966s-24.717-52.966-52.966-52.966h-759.172l95.338-84.745c17.655-21.186 21.186-56.497 0-77.683-10.593-10.593-24.717-17.655-38.841-17.655z" />
<glyph unicode="&#xe91c;" d="M242.036 703.069v0c70.749 0 128.465 57.716 128.465 128.465 0 33.513-13.033 65.164-37.236 89.367s-55.855 37.236-89.367 37.236v0c-35.375 1.862-67.025-11.171-91.229-35.375-50.269-50.269-50.269-132.189 0-180.596 24.204-24.204 55.855-37.236 89.367-39.098zM242.036 898.56c37.236 0 67.025-29.789 67.025-65.164 0-37.236-29.789-67.025-65.164-67.025-37.236 0-67.025 29.789-67.025 65.164v0c0 37.236 27.927 67.025 65.164 67.025v0zM456.145 555.985v0c7.447 65.164-39.098 122.88-102.4 130.327-3.724 0-9.309 0-13.033 0h-33.513c-11.171 0-20.48-5.585-27.927-13.033l-39.098-48.407-37.236 46.545c-7.447 9.309-16.756 13.033-27.927 13.033h-29.789c-65.164 3.724-117.295-50.269-117.295-115.433 0-3.724 0-9.309 0-13.033l26.065-189.905c3.724-31.651 22.342-61.44 50.269-78.196l40.96-294.167c1.862-33.513 29.789-57.716 63.302-57.716h68.887c33.513 0 59.578 24.204 63.302 57.716l40.96 294.167c27.927 16.756 46.545 44.684 50.269 78.196l24.204 189.905zM394.705 569.018c0-1.862 0-3.724 0-5.585l-26.065-189.905c-1.862-16.756-13.033-29.789-27.927-35.375-11.171-3.724-18.618-13.033-20.48-24.204l-42.822-312.785c0-1.862-1.862-1.862-3.724-1.862h-65.164c-1.862 0-1.862 0-3.724 1.862l-42.822 312.785c-1.862 11.171-9.309 20.48-20.48 24.204-14.895 5.585-26.065 18.618-27.927 35.375l-24.204 189.905c-3.724 29.789 18.618 57.716 48.407 61.44 1.862 0 3.724 0 5.585 0h18.618l44.684-55.855c7.447-9.309 20.48-14.895 31.651-14.895h1.862c13.033 0 24.204 5.585 31.651 14.895l44.684 55.855h18.618c14.895 0 29.789-5.585 39.098-16.756 14.895-9.309 20.48-24.204 20.48-39.098v0zM828.509 656.524c-59.578 39.098-130.327 61.44-201.076 61.44h-5.585c-33.513 0-67.025-5.585-98.676-14.895-16.756-5.585-24.204-24.204-18.618-39.098s20.48-22.342 35.375-20.48c161.978 46.545 331.404-44.684 377.949-206.662s-44.684-331.404-206.662-377.949c-85.644-26.065-178.735-11.171-255.069 39.098-14.895 9.309-33.513 3.724-42.822-11.171v0c-7.447-13.033-3.724-31.651 7.447-40.96 167.564-111.709 392.844-65.164 504.553 102.4 0 0 0 1.862 1.862 1.862 113.571 167.564 68.887 394.705-98.676 506.415v0z" />
<glyph unicode="&#xe91d;" d="M679.564 323.258v0c59.578 27.927 83.782 98.676 55.855 158.255s-98.676 83.782-158.255 55.855c-40.96-20.48-67.025-61.44-67.025-107.985 0-16.756 13.033-31.651 31.651-31.651s31.651 13.033 31.651 31.651c0 31.651 26.065 57.716 55.855 57.716v0 0c31.651 0 57.716-26.065 55.855-57.716 0-22.342-13.033-40.96-31.651-50.269-33.513-16.756-55.855-52.131-55.855-89.367v-14.895c0-16.756 13.033-31.651 29.789-31.651s31.651 13.033 31.651 29.789v16.756c-1.862 13.033 7.447 26.065 20.48 33.513v0z" />
<glyph unicode="&#xe91e;" d="M627.433 215.273v0c-16.756 0-31.651-13.033-31.651-31.651v-7.447c0-16.756 13.033-31.651 31.651-31.651 16.756 0 31.651 13.033 31.651 31.651v7.447c0 18.618-14.895 31.651-31.651 31.651z" />
<glyph unicode="&#xe91f;" d="M942.459 764.681c0 0-1.896 0 0 0h-77.748v3.793c0 15.17-13.274 28.444-28.444 28.444s-28.444-13.274-28.444-28.444v-3.793h-121.363v128.948c0 15.17-13.274 28.444-28.444 28.444h-288.237c-15.17 0-28.444-13.274-28.444-28.444v-128.948h-121.363v3.793c0 15.17-13.274 28.444-28.444 28.444s-28.444-13.274-28.444-28.444v-3.793h-77.748c-47.407 0-85.333-37.926-85.333-85.333v-620.089c0-47.407 37.926-85.333 85.333-85.333h855.23c47.407 0 85.333 37.926 85.333 85.333v620.089c0 47.407-37.926 85.333-83.437 85.333zM398.222 865.185h229.452v-100.504h-229.452v100.504zM940.563 30.815h-855.23c-15.17 0-28.444 13.274-28.444 28.444v620.089c0 15.17 13.274 28.444 28.444 28.444h857.126c15.17 0 28.444-13.274 28.444-28.444v-620.089c-1.896-15.17-13.274-28.444-30.341-28.444z" />
<glyph unicode="&#xe920;" d="M303.407 707.793c11.378-73.956 51.2-149.807 91.022-206.696-60.681-58.785-72.059-149.807-26.548-219.97l138.43-219.97c9.481-11.378 26.548-15.17 39.822-9.481l248.415 157.393c13.274 7.585 17.067 26.548 9.481 39.822l-140.326 218.074c-47.407 73.956-142.222 102.4-223.763 64.474-37.926 53.096-64.474 113.778-79.644 176.356zM538.548 114.252l-123.259 195.319c-28.444 45.511-22.756 102.4 11.378 142.222 24.652-34.133 43.615-54.993 47.407-56.889 11.378-9.481 28.444-9.481 39.822-1.896 11.378 9.481 13.274 28.444 1.896 39.822 0 0 0 0-1.896 1.896 0 0-17.067 18.963-41.719 51.2 13.274 3.793 87.23 36.030 140.326-47.407l127.052-197.215-201.007-127.052z" />
<glyph unicode="&#xe921;" horiz-adv-x="1022" d="M808.96 329.216c-18.432 22.528-47.104 34.816-75.776 34.816s-57.344-12.288-75.776-34.816l-65.536-65.536c-4.096 2.048-8.192 4.096-10.24 6.144l-4.096 2.048c-8.192 4.096-14.336 8.192-20.48 10.24-67.584 43.008-126.976 98.304-176.128 159.744-22.528 26.624-40.96 57.344-55.296 88.064 16.384 16.384 32.768 32.768 47.104 47.104 4.096 4.096 6.144 6.144 10.24 10.24 2.048 2.048 6.144 6.144 8.192 8.192 43.008 36.864 47.104 100.352 10.24 143.36-4.096 4.096-6.144 8.192-10.24 10.24l-59.392 59.392c-4.096 4.096-6.144 6.144-10.24 10.24l-14.336 14.336c-12.288 12.288-22.528 24.576-34.816 34.816-20.48 20.48-47.104 32.768-75.776 32.768s-55.296-12.288-75.776-32.768l-71.68-73.728c-28.672-26.624-45.056-63.488-49.152-102.4-2.048-55.296 6.144-110.592 28.672-161.792 38.912-100.352 94.208-194.56 163.84-274.432 92.16-110.592 206.848-200.704 337.92-264.192 59.392-30.72 124.928-49.152 190.464-55.296v0c4.096 0 8.192 0 14.336 0 47.104-2.048 94.208 18.432 126.976 55.296l2.048 2.048c12.288 14.336 24.576 26.624 36.864 38.912 8.192 8.192 18.432 18.432 28.672 28.672 43.008 38.912 45.056 104.448 8.192 145.408-2.048 2.048-4.096 6.144-8.192 8.192l-120.832 114.688zM243.712 298.496c-65.536 75.776-116.736 161.792-153.6 256-18.432 40.96-26.624 88.064-24.576 133.12 2.048 22.528 12.288 45.056 28.672 61.44l73.728 73.728c8.192 8.192 18.432 14.336 30.72 14.336s22.528-6.144 28.672-14.336c12.288-12.288 24.576-24.576 36.864-36.864v0c6.144-6.144 12.288-14.336 20.48-20.48l59.392-59.392c16.384-12.288 20.48-34.816 8.192-51.2-2.048-4.096-6.144-6.144-8.192-8.192v0c-6.144-6.144-12.288-12.288-18.432-18.432l-4.096-4.096c-16.384-16.384-32.768-38.912-49.152-53.248v0c-14.336-14.336-20.48-34.816-12.288-53.248 0 0 0 0 0-2.048v0c18.432-40.96 40.96-79.872 69.632-114.688 53.248-67.584 118.784-126.976 192.512-174.080 8.192-6.144 18.432-10.24 26.624-14.336s14.336-8.192 20.48-10.24v0 0c0 0 0 0 2.048 0 6.144-4.096 14.336-6.144 22.528-6.144 14.336 0 26.624 6.144 34.816 16.384l73.728 73.728c8.192 8.192 18.432 14.336 28.672 14.336s20.48-6.144 28.672-14.336l118.784-118.784c16.384-12.288 20.48-36.864 6.144-55.296-2.048-2.048-4.096-4.096-8.192-6.144-6.144-8.192-14.336-14.336-20.48-20.48l-4.096-4.096c-14.336-14.336-28.672-28.672-40.96-43.008-20.48-22.528-49.152-32.768-77.824-32.768-4.096 0-6.144 0-10.24 0-57.344 6.144-114.688 22.528-165.888 49.152-118.784 55.296-227.328 139.264-313.344 243.712v0z" />
<glyph unicode="&#xe922;" horiz-adv-x="1022" d="M550.912 710.144c112.64-20.48 202.752-108.544 221.184-221.184 2.048-16.384 16.384-28.672 32.768-26.624 2.048 0 4.096 0 6.144 0v0c8.192 2.048 16.384 6.144 22.528 14.336 4.096 6.144 6.144 16.384 6.144 24.576-24.576 139.264-135.168 249.856-276.48 274.432v0c-18.432 2.048-34.816-10.24-36.864-28.672s8.192-32.768 24.576-36.864z" />
<glyph unicode="&#xe923;" horiz-adv-x="1022" d="M1021.952 507.392c-38.912 231.424-219.136 411.648-450.56 452.608-18.432 2.048-34.816-10.24-38.912-28.672-2.048-18.432 8.192-34.816 26.624-36.864 202.752-34.816 362.496-194.56 397.312-397.312 2.048-16.384 16.384-28.672 32.768-26.624 2.048 0 4.096 0 6.144 0v0c8.192 2.048 16.384 6.144 22.528 14.336 4.096 6.144 6.144 14.336 4.096 22.528z" />
<glyph unicode="&#xe924;" d="M550.912 435.712l-10.24 8.192-10.24-8.192 4.096 12.288-10.24 8.192h14.336l4.096 12.288 4.096-12.288h14.336l-10.24-8.192v-12.288zM495.616 849.408l4.096-12.288-10.24 8.192-10.24-8.192 4.096 12.288-12.288 8.192h14.336l4.096 12.288 4.096-12.288h14.336l-12.288-8.192zM495.616 730.624l4.096-12.288-10.24 8.192-10.24-8.192 4.096 12.288-12.288 8.192h14.336l4.096 12.288 4.096-12.288h14.336l-12.288-8.192zM495.616 615.936l4.096-12.288-10.24 8.192-10.24-8.192 4.096 12.288-10.24 8.192h14.336l4.096 12.288 4.096-12.288h14.336l-14.336-8.192zM497.664 488.96l-10.24 8.192-12.288-8.192 4.096 12.288-10.24 8.192h14.336l4.096 12.288 4.096-12.288h14.336l-10.24-8.192 2.048-12.288zM444.416 792.064l4.096-12.288-10.24 8.192-10.24-8.192 2.048 12.288-10.24 8.192h14.336l4.096 12.288 4.096-12.288h14.336l-12.288-8.192zM444.416 677.376l4.096-12.288-12.288 8.192-10.24-8.192 4.096 12.288-10.24 8.192h14.336l4.096 12.288 4.096-12.288h14.336l-12.288-8.192zM444.416 560.64l4.096-12.288-10.24 8.192-10.24-8.192 4.096 12.288-10.24 8.192h14.336l4.096 12.288 4.096-12.288h14.336l-14.336-8.192zM448.512 435.712l-10.24 8.192-10.24-8.192 4.096 12.288-10.24 8.192h14.336l4.096 12.288 4.096-12.288h14.336l-10.24-8.192v-12.288zM393.216 849.408l4.096-12.288-10.24 8.192-10.24-8.192 4.096 12.288-12.288 8.192h14.336l4.096 12.288 4.096-12.288h14.336l-12.288-8.192zM393.216 730.624l4.096-12.288-10.24 8.192-10.24-8.192 4.096 12.288-12.288 8.192h14.336l4.096 12.288 4.096-12.288h14.336l-12.288-8.192zM393.216 615.936l4.096-12.288-10.24 8.192-10.24-8.192 4.096 12.288-10.24 8.192h14.336l4.096 12.288 4.096-12.288h14.336l-14.336-8.192zM395.264 488.96l-10.24 8.192-12.288-8.192 4.096 12.288-10.24 8.192h14.336l4.096 12.288 4.096-12.288h14.336l-10.24-8.192 2.048-12.288zM342.016 906.752l4.096-12.288-10.24 8.192-10.24-8.192 2.048 12.288-10.24 8.192h14.336l4.096 12.288 4.096-12.288h14.336l-12.288-8.192zM342.016 792.064l4.096-12.288-10.24 8.192-10.24-8.192 2.048 12.288-10.24 8.192h14.336l4.096 12.288 4.096-12.288h14.336l-12.288-8.192zM342.016 677.376l4.096-12.288-12.288 8.192-10.24-8.192 4.096 12.288-10.24 8.192h14.336l4.096 12.288 4.096-12.288h14.336l-12.288-8.192zM342.016 560.64l4.096-12.288-10.24 8.192-10.24-8.192 4.096 12.288-10.24 8.192h14.336l4.096 12.288 4.096-12.288h14.336l-14.336-8.192zM346.112 435.712l-10.24 8.192-10.24-8.192 4.096 12.288-10.24 8.192h14.336l4.096 12.288 4.096-12.288h14.336l-10.24-8.192v-12.288zM290.816 853.504l4.096-12.288-10.24 8.192-10.24-8.192 4.096 12.288-12.288 8.192h14.336l4.096 12.288 4.096-12.288h14.336l-12.288-8.192zM290.816 734.72l4.096-12.288-10.24 8.192-10.24-8.192 4.096 12.288-12.288 8.192h14.336l4.096 12.288 4.096-12.288h14.336l-12.288-8.192zM290.816 620.032l4.096-12.288-10.24 8.192-10.24-8.192 4.096 12.288-12.288 8.192h14.336l4.096 12.288 4.096-12.288h14.336l-12.288-8.192zM292.864 493.056l-10.24 8.192-10.24-8.192 4.096 12.288-10.24 8.192h14.336l4.096 12.288 4.096-12.288h14.336l-10.24-8.192v-12.288zM239.616 792.064l4.096-12.288-10.24 8.192-10.24-8.192 2.048 12.288-10.24 8.192h14.336l4.096 12.288 4.096-12.288h14.336l-12.288-8.192zM239.616 677.376l4.096-12.288-12.288 8.192-10.24-8.192 4.096 12.288-10.24 8.192h14.336l4.096 12.288 4.096-12.288h14.336l-12.288-8.192zM239.616 560.64l4.096-12.288-10.24 8.192-10.24-8.192 4.096 12.288-10.24 8.192h14.336l4.096 12.288 4.096-12.288h14.336l-14.336-8.192zM243.712 435.712l-10.24 8.192-10.24-8.192 4.096 12.288-10.24 8.192h14.336l4.096 12.288 4.096-12.288h14.336l-10.24-8.192v-12.288zM188.416 736.768l4.096-12.288-10.24 8.192-10.24-8.192 4.096 12.288-12.288 8.192h14.336l4.096 12.288 4.096-12.288h14.336l-12.288-8.192zM188.416 620.032l4.096-12.288-10.24 8.192-10.24-8.192 4.096 12.288-12.288 8.192h14.336l4.096 12.288 2.048-12.288h14.336l-10.24-8.192zM190.464 493.056l-10.24 8.192-10.24-8.192 4.096 12.288-10.24 8.192h14.336l4.096 12.288 2.048-10.24h14.336l-10.24-8.192 2.048-14.336zM432.128 912.896l4.096 12.288 4.096-12.288h14.336l-10.24-8.192 4.096-12.288-10.24 8.192-10.24-8.192 2.048 14.336-10.24 8.192h12.288zM534.528 568.832l4.096 12.288 4.096-12.288h14.336l-10.24-8.192 4.096-12.288-10.24 8.192-10.24-8.192 4.096 12.288-10.24 8.192h10.24zM534.528 685.568l4.096 12.288 4.096-12.288h14.336l-10.24-8.192 4.096-12.288-12.288 8.192-10.24-8.192 4.096 12.288-10.24 8.192h12.288zM534.528 800.256l4.096 12.288 4.096-12.288h14.336l-10.24-8.192 4.096-12.288-10.24 8.192-10.24-8.192 2.048 12.288-10.24 8.192h12.288zM534.528 912.896l4.096 12.288 4.096-12.288h14.336l-10.24-8.192 4.096-12.288-10.24 8.192-10.24-8.192 2.048 14.336-10.24 8.192h12.288zM137.216 677.376l4.096-12.288-12.288 8.192-10.24-8.192 4.096 12.288-10.24 8.192h14.336l4.096 12.288 4.096-12.288h14.336l-12.288-8.192zM137.216 560.64l4.096-12.288-10.24 8.192-10.24-8.192 2.048 12.288-10.24 8.192h14.336l4.096 12.288 4.096-12.288h14.336l-12.288-8.192zM141.312 435.712l-10.24 8.192-10.24-8.192 2.048 14.336-10.24 8.192h14.336l4.096 12.288 4.096-12.288h14.336l-10.24-8.192 2.048-14.336zM86.016 622.080l4.096-12.288-10.24 8.192-10.24-8.192 4.096 12.288-12.288 8.192h14.336l4.096 12.288 2.048-12.288h14.336l-10.24-8.192zM88.064 495.104l-10.24 8.192-10.24-8.192 2.048 14.336-10.24 8.192h14.336l4.096 12.288 4.096-12.288h14.336l-12.288-8.192 4.096-14.336zM38.912 435.712l-10.24 8.192-10.24-8.192 2.048 14.336-10.24 8.192h14.336l4.096 12.288 4.096-12.288h14.336l-10.24-8.192 2.048-14.336zM589.824 953.856c-4.096 0-43.008 4.096-47.104 6.144l-92.16-4.096c-96.256-12.288-184.32-51.2-258.048-108.544l2.048-6.144-6.144 4.096c-16.384-14.336-32.768-28.672-49.152-45.056h8.192l-10.24-8.192 4.096-12.288-12.288 6.144-4.096-2.048c-10.24-12.288-20.48-24.576-28.672-36.864h2.048l-4.096-2.048c-2.048-4.096-4.096-6.144-6.144-10.24l2.048-8.192-6.144 4.096c-30.72-47.104-55.296-100.352-69.632-157.696 0 0 0-2.048 0-2.048h8.192l4.096 12.288 4.096-12.288h14.336l-10.24-8.192 4.096-12.288-10.24 8.192-10.24-8.192 2.048 10.24-6.144 4.096c-12.288-53.248-16.384-106.496-12.288-157.696h587.776v546.816z" />
<glyph unicode="&#xe925;" d="M-53.248 960h1129.472v-1077.248h-1129.472v1077.248z" />
<glyph unicode="&#xe926;" d="M15.36 570.88c67.584 274.432 345.088 442.368 619.52 373.76 274.432-67.584 442.368-345.088 373.76-619.52-67.584-274.432-345.088-442.368-619.52-373.76-274.432 67.584-442.368 345.088-373.76 619.52z" />
<glyph unicode="&#xe927;" d="M875.52 808.448l-205.824-137.216v264.192c-11.264 4.096-22.528 7.168-33.792 10.24-96.256 23.552-193.536 18.432-281.6-10.24v-263.168l-204.8 136.192c-48.128-47.104-86.016-104.448-112.64-168.96l54.272-35.84h-66.56c-3.072-10.24-6.144-21.504-9.216-32.768-24.576-97.28-18.432-194.56 11.264-283.648h66.56l-53.248-35.84c25.6-62.464 64.512-119.808 112.64-167.936l201.728 134.144v-257.024c11.264-4.096 23.552-7.168 35.84-10.24 96.256-23.552 192.512-18.432 280.576 9.216v259.072l202.752-135.168c47.104 47.104 86.016 103.424 112.64 166.912l-55.296 36.864h68.608c4.096 12.288 7.168 24.576 11.264 37.888 23.552 95.232 18.432 191.488-9.216 278.528h-68.608l55.296 36.864c-27.648 62.464-65.536 119.808-112.64 167.936z" />
<glyph unicode="&#xe928;" d="M274.432 603.648l-189.44 125.952c-12.288-19.456-24.576-38.912-33.792-60.416l99.328-65.536h123.904zM939.008 730.624c-12.288 19.456-26.624 37.888-41.984 55.296l-227.328-150.528v-31.744h77.824l191.488 126.976zM86.016 164.352c13.312-19.456 26.624-37.888 41.984-55.296l225.28 149.504v28.672h-81.92l-185.344-122.88zM1015.808 538.112h-412.672v413.696c-62.464 11.264-124.928 11.264-184.32 0v-413.696h-410.624c-11.264-62.464-10.24-124.928 1.024-184.32h410.624v-408.576c62.464-11.264 124.928-11.264 184.32 0v409.6h411.648c11.264 61.44 11.264 122.88 0 183.296zM751.616 287.232l186.368-123.904c12.288 19.456 24.576 38.912 34.816 60.416l-96.256 63.488h-124.928z" />
<glyph unicode="&#xe929;" d="M669.696 882.176v0-32.768c2.048 6.144 3.072 12.288 3.072 17.408s-1.024 10.24-3.072 15.36z" />
<glyph unicode="&#xe92a;" d="M14.336 570.88c69.632 274.432 346.112 442.368 620.544 374.784 274.432-69.632 442.368-346.112 374.784-620.544-69.632-274.432-346.112-442.368-620.544-374.784-274.432 69.632-442.368 346.112-374.784 620.544z" />
<glyph unicode="&#xe92b;" d="M339.968 931.328c-155.648-57.344-282.624-186.368-325.632-360.448-63.488-258.048 79.872-518.144 325.632-606.208v966.656z" />
<glyph unicode="&#xe92c;" d="M684.032 929.28v-964.608c155.648 57.344 282.624 188.416 325.632 360.448 63.488 258.048-79.872 518.144-325.632 604.16z" />
<glyph unicode="&#xe92d;" d="M389.12-49.664c256-63.488 514.048 77.824 602.112 319.488h-958.464c55.296-153.6 184.32-276.48 356.352-319.488z" />
<glyph unicode="&#xe92e;" d="M634.88 945.664c-258.048 63.488-518.144-79.872-604.16-325.632h964.608c-57.344 155.648-186.368 282.624-360.448 325.632z" />
<glyph unicode="&#xe92f;" d="M993.28 620.032h-962.56c-6.144-16.384-10.24-32.768-14.336-49.152-26.624-102.4-18.432-206.848 16.384-301.056h960.512c6.144 18.432 12.288 34.816 16.384 55.296 24.576 102.4 16.384 202.752-16.384 294.912z" />
<glyph unicode="&#xe930;" glyph-name="ico-clock" d="M513.254-54.779c-280.236-3.375-510.148 221.065-513.523 501.301s221.065 510.148 501.301 513.523c280.236 3.375 510.148-221.065 513.523-501.301s-221.065-510.148-501.301-513.523zM511.884 58.99c217.403 2.618 391.52 180.981 388.902 398.383s-180.981 391.52-398.383 388.902c-217.403-2.618-391.52-180.981-388.902-398.383s180.981-391.52 398.383-388.902zM788.075 512.849c31.417 0.381 57.193-24.779 57.574-56.195s-24.779-57.193-56.195-57.574l-281.6-3.413c-31.417-0.381-57.193 24.779-57.574 56.195l-3.413 281.6c-0.381 31.417 24.779 57.193 56.195 57.574s57.193-24.779 57.574-56.195l2.724-224.715 224.715 2.724z" />
<glyph unicode="&#xe931;" glyph-name="ico-non-disponibile" d="M819.2 960h-614.4c-113.778 0-204.8-91.022-204.8-204.8v-614.4c0-113.778 91.022-204.8 204.8-204.8h614.4c113.778 0 204.8 91.022 204.8 204.8v614.4c0 113.778-91.022 204.8-204.8 204.8zM967.111 140.8c0-79.644-68.267-147.911-147.911-147.911h-614.4c-79.644 0-147.911 68.267-147.911 147.911v614.4c0 79.644 68.267 147.911 147.911 147.911h614.4c79.644 0 147.911-68.267 147.911-147.911v-614.4zM876.089 783.644c-11.378 11.378-28.444 11.378-39.822 0l-312.889-307.2-301.511 307.2c-11.378 5.689-34.133 5.689-45.511 0s-5.689-34.133 0-45.511l307.2-307.2-307.2-307.2c-11.378-11.378-11.378-28.444 0-39.822 5.689-5.689 11.378-5.689 22.756-5.689s17.067 0 22.756 5.689l301.511 307.2 307.2-307.2c5.689-5.689 11.378-5.689 22.756-5.689s17.067 0 22.756 5.689c11.378 11.378 11.378 28.444 0 39.822l-307.2 312.889 307.2 307.2c5.689 5.689 5.689 28.444 0 39.822z" />
<glyph unicode="&#xe932;" glyph-name="ico-emergenza" d="M955.733 698.311c39.822 0 68.267 28.444 68.267 68.267v0 125.156c0 39.822-28.444 68.267-68.267 68.267v0h-887.467c-39.822 0-68.267-28.444-68.267-68.267v-887.467c0-39.822 28.444-68.267 68.267-68.267v0h887.467c39.822 0 68.267 28.444 68.267 68.267v0 125.156c0 39.822-28.444 68.267-68.267 68.267s-68.267-28.444-68.267-68.267v-56.889h-750.933v750.933h750.933v-56.889c0-39.822 28.444-68.267 68.267-68.267v0zM608.711 209.067c11.378-11.378 28.444-17.067 39.822-17.067 17.067 0 34.133 5.689 45.511 22.756l170.667 187.733c22.756 22.756 22.756 62.578 0 85.333l-170.667 187.733c-22.756 28.444-62.578 28.444-91.022 5.689s-28.444-62.578-5.689-91.022v0l85.333-79.644h-352.711c-34.133 0-62.578-28.444-62.578-62.578s28.444-62.578 62.578-62.578h352.711l-73.956-85.333c-28.444-28.444-28.444-68.267 0-91.022v0z" />
<glyph unicode="&#xe933;" glyph-name="arrow-dropdown-white" d="M512 155.429c-14.629 0-29.257 7.314-40.229 18.286l-453.486 460.8c-21.943 25.6-25.6 62.171-3.657 87.771 21.943 21.943 54.857 25.6 76.8 3.657 0 0 3.657-3.657 3.657-3.657l416.914-420.571 416.914 420.571c18.286 21.943 54.857 25.6 76.8 3.657 0 0 3.657-3.657 3.657-3.657 21.943-25.6 18.286-62.171-3.657-87.771l-457.143-460.8c-7.314-10.971-21.943-18.286-36.571-18.286z" />
<glyph unicode="&#xe934;" glyph-name="arrow-dx-white" d="M658.286 45.714c-7.314 0-18.286 3.657-25.6 10.971-14.629 14.629-14.629 36.571-3.657 51.2l274.286 303.543h-866.743c-21.943 0-36.571 14.629-36.571 36.571s14.629 36.571 36.571 36.571h870.4l-274.286 303.543c-14.629 14.629-10.971 36.571 3.657 51.2s36.571 10.971 51.2-3.657l347.429-387.657-351.086-391.314c-7.314-7.314-14.629-10.971-25.6-10.971z" />
<glyph unicode="&#xe935;" glyph-name="ico-fb" horiz-adv-x="999" d="M500.364 960c-276.687 0-500.364-228.848-500.364-512s223.677-512 500.364-512 500.364 228.848 500.364 512-224.97 512-500.364 512zM637.414 647.111h-72.404c-15.515 0-28.444-11.636-28.444-27.152 0-1.293 0-3.879 0-5.172v-69.818h100.848l-11.636-117.657h-89.212v-333.576h-135.758v333.576h-64.646v117.657h64.646v76.283c0 54.303 25.859 139.636 135.758 139.636h99.556c1.293 0 1.293-113.778 1.293-113.778z" />
<glyph unicode="&#xe936;" glyph-name="ico-info-empty" d="M512-64c-283.386 0-512 228.614-512 512s228.614 512 512 512c283.386 0 512-228.614 512-512s-228.614-512-512-512zM512 888.558c-242.902 0-440.558-197.656-440.558-440.558s197.656-440.558 440.558-440.558 440.558 197.656 440.558 440.558-197.656 440.558-440.558 440.558zM547.721 186.047v285.767c0 19.051-16.67 35.721-35.721 35.721s-35.721-16.67-35.721-35.721v-285.767c0-19.051 16.67-35.721 35.721-35.721s35.721 16.67 35.721 35.721zM547.721 648.037v47.628c0 19.051-16.67 35.721-35.721 35.721s-35.721-16.67-35.721-35.721v-47.628c0-19.051 16.67-35.721 35.721-35.721s35.721 16.67 35.721 35.721z" />
<glyph unicode="&#xe937;" glyph-name="ico-select-white" d="M800 448c0-12.8-6.4-25.6-19.2-38.4l-454.4-454.4c-25.6-25.6-57.6-25.6-83.2 0-25.6 19.2-25.6 51.2-6.4 76.8 0 0 0 0 6.4 6.4l416 409.6-416 416c-19.2 19.2-19.2 57.6 0 76.8 0 0 0 0 6.4 6.4 25.6 19.2 64 19.2 83.2 0l454.4-454.4c6.4-12.8 12.8-32 12.8-44.8z" />
<glyph unicode="&#xe938;" glyph-name="ico-info-full" d="M512 924.279c-261.953 0-476.279-214.326-476.279-476.279s214.326-476.279 476.279-476.279 476.279 214.326 476.279 476.279-214.326 476.279-476.279 476.279zM547.721 186.047c0-19.051-16.67-35.721-35.721-35.721s-35.721 16.67-35.721 35.721v285.767c0 19.051 16.67 35.721 35.721 35.721s35.721-16.67 35.721-35.721v-285.767zM547.721 648.037c0-19.051-16.67-35.721-35.721-35.721s-35.721 16.67-35.721 35.721v47.628c0 19.051 16.67 35.721 35.721 35.721s35.721-16.67 35.721-35.721v-47.628z" />
<glyph unicode="&#xe939;" glyph-name="ico-emergenza-mobile" horiz-adv-x="559" d="M558.545 448l-279.273-251.345-279.273-260.655v1024l279.273-251.345 279.273-260.655z" />
<glyph unicode="&#xe93a;" glyph-name="icon-cart" horiz-adv-x="992" d="M825.6 300.8c89.6 0 166.4 73.6 166.4 166.4v195.2c0 16-12.8 32-28.8 32l-764.8 96v3.2c-3.2 54.4-35.2 105.6-83.2 128l-67.2 32c-16 12.8-35.2 6.4-44.8-12.8-9.6-16-3.2-35.2 12.8-41.6 0 0 0 0 0 0l67.2-32c28.8-12.8 44.8-38.4 48-70.4v-528c0-67.2 51.2-124.8 118.4-131.2-12.8-19.2-19.2-44.8-19.2-67.2 0-73.6 57.6-131.2 131.2-131.2s131.2 57.6 131.2 131.2c0 22.4-6.4 44.8-19.2 67.2h233.6c-12.8-19.2-19.2-41.6-19.2-67.2 0-73.6 57.6-131.2 131.2-131.2s131.2 57.6 131.2 131.2c0 73.6-57.6 131.2-131.2 131.2 0 0 0 0 0 0h-553.6c-35.2-3.2-64 22.4-67.2 57.6 0 3.2 0 6.4 0 9.6v32h627.2zM428.8 67.2c0-35.2-28.8-67.2-67.2-67.2-35.2 0-67.2 28.8-67.2 67.2 0 35.2 28.8 67.2 67.2 67.2 0 0 0 0 0 0 38.4 0 67.2-28.8 67.2-67.2v0zM892.8 67.2c0-35.2-28.8-67.2-67.2-67.2-35.2 0-67.2 28.8-67.2 67.2 0 35.2 28.8 67.2 67.2 67.2 0 0 0 0 0 0 38.4 0 67.2-28.8 67.2-67.2v0zM924.8 464c0-54.4-44.8-99.2-99.2-99.2h-627.2v358.4l726.4-89.6v-169.6z" />
<glyph unicode="&#xe93b;" glyph-name="ico-posto" horiz-adv-x="1047" d="M984.178 430.933c-56.889 39.822-147.911 39.822-278.756 0-28.444-5.689-73.956-22.756-113.778-39.822-22.756-5.689-39.822-11.378-56.889-17.067-85.333-28.444-113.778-11.378-119.467-5.689 0 11.378-5.689 22.756 0 39.822 0 11.378 0 22.756 0 34.133 0 5.689 0 11.378 0 22.756 0 0 0 0 5.689 0l295.822 79.644c17.067 5.689 22.756 17.067 17.067 34.133-5.689 11.378-17.067 22.756-34.133 17.067l-284.444-73.956c5.689 108.089-17.067 216.178-62.578 312.889-17.067 39.822-62.578 125.156-159.289 125.156-56.889 0-136.533-5.689-176.356-51.2-17.067-17.067-22.756-39.822-17.067-62.578 39.822-159.289 91.022-312.889 153.6-466.489 22.756-68.267 51.2-125.156 68.267-176.356v-5.689c22.756-68.267 56.889-125.156 216.178-125.156h472.178c0 0 0 0 5.689 0 45.511 5.689 136.533 56.889 136.533 193.422 0 62.578-22.756 125.156-68.267 164.978zM904.533 129.422h-460.8c-136.533 0-147.911 39.822-164.978 85.333v5.689c-22.756 51.2-45.511 113.778-73.956 176.356-62.578 147.911-113.778 301.511-153.6 455.111 0 5.689 0 17.067 5.689 22.756 11.378 11.378 39.822 28.444 136.533 28.444v0c56.889 0 91.022-51.2 113.778-96.711 51.2-113.778 73.956-238.933 56.889-364.089 0-11.378 0-22.756 0-39.822-5.689-28.444 5.689-62.578 34.133-85.333 34.133-28.444 91.022-28.444 170.667 0 17.067 5.689 34.133 11.378 56.889 17.067 39.822 11.378 85.333 28.444 108.089 34.133 108.089 34.133 187.733 34.133 227.556 5.689 28.444-34.133 45.511-73.956 39.822-119.467-5.689-102.4-79.644-119.467-96.711-125.156v0zM910.222-7.111h-580.267c-17.067 0-28.444-11.378-28.444-28.444s11.378-28.444 28.444-28.444h580.267c17.067 0 28.444 11.378 28.444 28.444s-17.067 28.444-28.444 28.444v0 0z" />
<glyph unicode="&#xe93c;" glyph-name="ico-add-green" d="M981.333-64h-938.667c-25.6 0-42.667 17.067-42.667 42.667v938.667c0 25.6 17.067 42.667 42.667 42.667h938.667c25.6 0 42.667-17.067 42.667-42.667v-938.667c0-25.6-17.067-42.667-42.667-42.667zM85.333 21.333h853.333v853.333h-853.333v-853.333zM768 405.333h-512c-25.6 0-42.667 17.067-42.667 42.667s17.067 42.667 42.667 42.667h512c25.6 0 42.667-17.067 42.667-42.667s-17.067-42.667-42.667-42.667zM512 149.333c-25.6 0-42.667 17.067-42.667 42.667v512c0 25.6 17.067 42.667 42.667 42.667s42.667-17.067 42.667-42.667v-512c0-25.6-17.067-42.667-42.667-42.667z" />
<glyph unicode="&#xe93d;" glyph-name="ico-modifica-green" horiz-adv-x="1029" d="M789.943 374.857c-24.381 0-43.886-19.505-43.886-43.886 0 0 0 0 0 0v-307.2h-658.286v658.286h263.314c24.381 0 43.886 19.505 43.886 43.886 0 19.505-19.505 39.010-43.886 39.010 0 0 0 0 0 0h-307.2c-24.381 0-43.886-19.505-43.886-43.886 0 0 0 0 0 0v-741.181c0-24.381 19.505-43.886 43.886-43.886 0 0 0 0 0 0h746.057c24.381 0 43.886 19.505 43.886 43.886 0 0 0 0 0 0v351.086c0 24.381-19.505 43.886-43.886 43.886 0 0 0 0 0 0zM1014.248 764.952l-185.295 185.295c-19.505 14.629-43.886 14.629-63.39 0l-429.105-433.981c-4.876-4.876-9.752-14.629-14.629-19.505l-34.133-219.429c-4.876-24.381 14.629-43.886 34.133-48.762 0 0 4.876 0 4.876 0s4.876 0 4.876 0l219.429 34.133c9.752 0 19.505 4.876 24.381 14.629l429.105 429.105c24.381 14.629 24.381 39.010 9.752 58.514v0zM531.505 345.6l-146.286-24.381 24.381 146.286 268.19 268.19 121.905-121.905-268.19-268.19zM863.086 677.181l-121.905 121.905 58.514 58.514 121.905-121.905-58.514-58.514z" />
<glyph unicode="&#xe93e;" glyph-name="ico-trash-green" horiz-adv-x="786" d="M180.986-64c-30.958 0-64.298 11.907-88.112 35.721-26.195 23.814-42.865 57.153-42.865 92.874 0 4.763 0 9.526 0 14.288v607.256c-2.381 19.051 14.288 35.721 33.34 35.721h619.163c19.051 0 35.721-16.67 35.721-35.721v-612.019c2.381-33.34-9.526-69.060-33.34-95.256s-57.153-42.865-92.874-42.865c-4.763 0-9.526 0-14.288 0h-411.981c-2.381 0-4.763 0-4.763 0zM600.112 7.442c0 0 0 0 0 0 4.763 0 7.144 0 9.526 0 33.34 2.381 59.535 30.958 59.535 64.298l-2.381 578.679h-547.721v-573.916c0 0 0-2.381 0-2.381 0-2.381 0-4.763 0-7.144 0-16.67 7.144-33.34 21.433-42.865 11.907-11.907 28.577-16.67 45.247-16.67h414.363zM226.233 147.944c-19.051 0-35.721 16.67-35.721 35.721v326.251c0 19.051 16.67 35.721 35.721 35.721s35.721-16.67 35.721-35.721v-326.251c0-19.051-16.67-35.721-35.721-35.721zM392.93 83.647c-19.051 0-35.721 16.67-35.721 35.721v452.465c0 19.051 16.67 35.721 35.721 35.721s35.721-16.67 35.721-35.721v-452.465c0-19.051-16.67-35.721-35.721-35.721zM559.628 147.944c-19.051 0-35.721 16.67-35.721 35.721v326.251c0 19.051 16.67 35.721 35.721 35.721s35.721-16.67 35.721-35.721v-326.251c0-19.051-14.288-35.721-35.721-35.721zM750.14 650.419h-714.419c-19.051 0-35.721 16.67-35.721 35.721v95.256c0 45.247 38.102 83.349 83.349 83.349h619.163c45.247 0 83.349-38.102 83.349-83.349v-95.256c0-19.051-16.67-35.721-35.721-35.721zM71.442 721.86h642.977v59.535c0 7.144-4.763 11.907-11.907 11.907h-619.163c-7.144 0-11.907-4.763-11.907-11.907v-59.535zM559.628 817.116c-19.051 0-35.721 16.67-35.721 35.721v35.721h-261.953v-35.721c0-19.051-16.67-35.721-35.721-35.721s-35.721 16.67-35.721 35.721v71.442c0 19.051 16.67 35.721 35.721 35.721h333.395c19.051 0 35.721-16.67 35.721-35.721v-71.442c0-19.051-16.67-35.721-35.721-35.721z" />
<glyph unicode="&#xe93f;" glyph-name="ico-faq" horiz-adv-x="1336" d="M1219.896 643.896h-133.565v178.087c0 75.687-57.878 138.017-133.565 138.017h-823.652c-71.235 0-129.113-57.878-129.113-129.113v-458.574c0-71.235 57.878-133.565 129.113-133.565h115.757v-102.4c0-17.809 13.357-31.165 26.713-31.165 0 0 0 0 4.452 0 8.904 0 13.357 4.452 17.809 8.904l151.374 124.661h93.496v-31.165c0-80.139 62.33-142.47 142.47-142.47h316.104l129.113-120.209c4.452-4.452 13.357-8.904 22.261-8.904 4.452 0 8.904 0 13.357 4.452 8.904 4.452 17.809 17.809 17.809 26.713v97.948h22.261c75.687 0 133.565 62.33 133.565 133.565v329.461c0 66.783-53.426 115.757-115.757 115.757zM280.487 301.078h-151.374c-40.070 0-71.235 31.165-71.235 71.235v458.574c0 35.617 31.165 66.783 66.783 66.783h823.652c40.070 0 75.687-35.617 71.235-75.687v-449.67c0-40.070-31.165-75.687-75.687-75.687h-507.548c-8.904 0-13.357-4.452-17.809-8.904l-111.304-89.043v66.783c0 17.809-13.357 35.617-26.713 35.617 0 0 0 0 0 0zM605.496 238.748h347.27c75.687 0 133.565 62.33 133.565 138.017v204.8h133.565c31.165 0 53.426-22.261 53.426-53.426v-333.913c-4.452-35.617-35.617-66.783-71.235-66.783h-53.426c-17.809 0-31.165-13.357-31.165-31.165 0 0 0 0 0 0v-57.878l-89.043 80.139c-4.452 4.452-13.357 8.904-22.261 8.904h-325.009c-44.522 0-80.139 35.617-80.139 80.139l4.452 31.165zM583.235 470.261v-17.809c0-8.904-4.452-17.809-17.809-22.261 0 0-4.452 0-4.452 0h-17.809c-8.904 0-17.809 4.452-22.261 17.809 0 0 0 4.452 0 4.452v17.809c0 8.904 4.452 17.809 17.809 22.261 0 0 4.452 0 4.452 0h17.809c8.904 0 17.809-4.452 22.261-13.357 0-4.452 0-8.904 0-8.904zM667.826 697.322c0-75.687-80.139-89.043-84.591-142.47v-8.904c0-8.904-8.904-17.809-17.809-13.357 0 0 0 0 0 0h-17.809c-8.904 0-17.809 4.452-22.261 17.809 0 0 0 4.452 0 4.452v4.452c0 62.33 80.139 80.139 80.139 129.113 0 22.261-22.261 44.522-44.522 40.070 0 0 0 0 0 0-13.357 0-26.713-4.452-35.617-8.904-8.904-8.904-22.261-4.452-26.713 4.452 0 0 0 0 0 0l-17.809 13.357c-8.904 8.904-8.904 17.809 0 26.713 0 0 0 0 4.452 4.452 22.261 13.357 48.974 22.261 75.687 22.261 53.426 4.452 102.4-35.617 106.852-93.496 0 0 0 0 0 0v0z" />
<glyph unicode="&#xe940;" glyph-name="ico-booking-active" horiz-adv-x="1700" d="M1602.56-64h-1500.16c-56.32 0-102.4 51.2-102.4 107.52 0 0 0 0 0 0v808.96c0 56.32 40.96 107.52 102.4 107.52h1500.16c56.32 0 102.4-51.2 102.4-107.52 0 0 0 0 0 0v-808.96c0-56.32-46.080-107.52-102.4-107.52 0 0 0 0 0 0zM1597.44 893.44h-1495.040c-20.48 0-35.84-20.48-35.84-35.84v-808.96c0-20.48 15.36-35.84 35.84-40.96 0 0 0 0 0 0h1495.040c20.48 0 35.84 20.48 35.84 35.84v808.96c0 20.48-15.36 35.84-35.84 40.96 0 0 0 0 0 0zM885.76 616.96c-20.48 0-35.84 15.36-35.84 35.84v0 138.24c0 20.48 15.36 35.84 35.84 35.84s35.84-20.48 35.84-35.84v-138.24c0-20.48-15.36-35.84-35.84-35.84v0zM885.76 345.6c-20.48 0-35.84 15.36-35.84 35.84v133.12c0 20.48 15.36 35.84 35.84 35.84s35.84-15.36 35.84-35.84v-138.24c0-15.36-15.36-30.72-35.84-30.72 0 0 0 0 0 0v0zM1361.92 586.24h-271.36c-20.48 0-35.84 15.36-30.72 35.84 0 15.36 15.36 30.72 30.72 30.72h271.36c20.48 0 35.84-15.36 30.72-35.84 0-15.36-10.24-30.72-30.72-30.72v0zM1361.92 243.2h-271.36c-20.48 0-35.84 15.36-30.72 35.84 0 15.36 15.36 30.72 30.72 30.72h271.36c20.48 0 35.84-15.36 30.72-35.84 0-15.36-10.24-30.72-30.72-30.72v0zM1428.48 412.16h-343.040c-20.48 0-35.84 15.36-35.84 35.84s15.36 35.84 35.84 35.84h343.040c20.48 0 35.84-15.36 35.84-35.84s-15.36-35.84-35.84-35.84v0zM885.76 74.24c-20.48 0-35.84 15.36-35.84 35.84v133.12c0 20.48 15.36 35.84 35.84 35.84s35.84-15.36 35.84-35.84v-138.24c0-15.36-15.36-30.72-35.84-30.72 0 0 0 0 0 0z" />
<glyph unicode="&#xe941;" glyph-name="ico-flights" horiz-adv-x="1040" d="M393.216-64c-16.384 0-28.672 4.096-45.056 12.288-20.48 12.288-32.768 28.672-36.864 49.152l-65.536 180.224-184.32 69.632c-12.288 4.096-24.576 12.288-36.864 20.48-32.768 32.768-32.768 86.016-4.096 118.784 0 0 0 0 0 0l45.056 45.056c20.48 20.48 49.152 28.672 77.824 20.48l147.456-28.672 94.208 90.112-278.528 139.264c-8.192 4.096-16.384 8.192-20.48 16.384-32.768 32.768-36.864 81.92-4.096 114.688 0 0 0 0 0 0l40.96 40.96c20.48 20.48 45.056 28.672 73.728 24.576l458.752-73.728 147.456 143.36c57.344 53.248 143.36 53.248 196.608 0s53.248-139.264 0-192.512c0 0 0 0 0 0l-143.36-139.264 73.728-450.56c4.096-24.576-4.096-53.248-24.576-73.728l-40.96-40.96c-32.768-32.768-90.112-32.768-122.88 4.096-4.096 4.096-12.288 12.288-16.384 20.48l-143.36 278.528-90.112-98.304 28.672-147.456c4.096-28.672-4.096-57.344-24.576-73.728l-45.056-45.056c-12.288-12.288-24.576-16.384-40.96-20.48 0-4.096-8.192-4.096-16.384-4.096zM131.072 394.752c-8.192 0-12.288-4.096-16.384-8.192l-45.056-45.056c-8.192-8.192-8.192-24.576 0-32.768 0 0 0 0 0 0 0-4.096 4.096-4.096 8.192-8.192 0 0 4.096 0 4.096 0l196.608-73.728c8.192-4.096 16.384-8.192 16.384-16.384l73.728-192.512c0 0 0-4.096 0-4.096 0-8.192 4.096-12.288 12.288-16.384 4.096-4.096 12.288-4.096 20.48-4.096 4.096 0 8.192 4.096 12.288 8.192l45.056 45.056c4.096 4.096 8.192 12.288 8.192 20.48l-32.768 163.84c0 8.192 0 20.48 8.192 28.672l135.168 131.072c12.288 12.288 32.768 12.288 45.056 0 4.096-4.096 4.096-4.096 4.096-8.192l159.744-315.392c8.192-12.288 20.48-16.384 32.768-12.288 4.096 0 4.096 4.096 8.192 4.096l40.96 40.96c4.096 4.096 8.192 12.288 8.192 20.48l-81.92 471.040c0 8.192 0 20.48 8.192 24.576l155.648 151.552c28.672 28.672 28.672 77.824 0 110.592-32.768 28.672-81.92 28.672-110.592 0l-155.648-151.552c-8.192-8.192-16.384-8.192-24.576-8.192l-479.232 73.728c-8.192 0-16.384 0-20.48-8.192l-40.96-40.96c-8.192-8.192-8.192-24.576 0-32.768 0 0 0 0 0 0s4.096-4.096 8.192-4.096l319.488-159.744c8.192-4.096 16.384-12.288 16.384-20.48s0-20.48-8.192-24.576l-135.168-131.072c-8.192-8.192-16.384-8.192-28.672-8.192l-163.84 32.768c-4.096 0-4.096 0-4.096 0v0z" />
<glyph unicode="&#xe942;" glyph-name="ico-booking" horiz-adv-x="1700" d="M1602.56-64h-1500.16c-56.32 0-102.4 51.2-102.4 107.52 0 0 0 0 0 0v808.96c0 56.32 40.96 107.52 102.4 107.52h1500.16c56.32 0 102.4-51.2 102.4-107.52 0 0 0 0 0 0v-808.96c0-56.32-46.080-107.52-102.4-107.52 0 0 0 0 0 0zM1597.44 893.44h-1495.040c-20.48 0-35.84-20.48-35.84-35.84v-808.96c0-20.48 15.36-35.84 35.84-40.96 0 0 0 0 0 0h1495.040c20.48 0 35.84 20.48 35.84 35.84v808.96c0 20.48-15.36 35.84-35.84 40.96 0 0 0 0 0 0zM885.76 616.96c-20.48 0-35.84 15.36-35.84 35.84v0 138.24c0 20.48 15.36 35.84 35.84 35.84s35.84-20.48 35.84-35.84v-138.24c0-20.48-15.36-35.84-35.84-35.84v0zM885.76 345.6c-20.48 0-35.84 15.36-35.84 35.84v133.12c0 20.48 15.36 35.84 35.84 35.84s35.84-15.36 35.84-35.84v-138.24c0-15.36-15.36-30.72-35.84-30.72 0 0 0 0 0 0v0zM1361.92 586.24h-271.36c-20.48 0-35.84 15.36-30.72 35.84 0 15.36 15.36 30.72 30.72 30.72h271.36c20.48 0 35.84-15.36 30.72-35.84 0-15.36-10.24-30.72-30.72-30.72v0zM1361.92 243.2h-271.36c-20.48 0-35.84 15.36-30.72 35.84 0 15.36 15.36 30.72 30.72 30.72h271.36c20.48 0 35.84-15.36 30.72-35.84 0-15.36-10.24-30.72-30.72-30.72v0zM1428.48 412.16h-343.040c-20.48 0-35.84 15.36-35.84 35.84s15.36 35.84 35.84 35.84h343.040c20.48 0 35.84-15.36 35.84-35.84s-15.36-35.84-35.84-35.84v0zM885.76 74.24c-20.48 0-35.84 15.36-35.84 35.84v133.12c0 20.48 15.36 35.84 35.84 35.84s35.84-15.36 35.84-35.84v-138.24c0-15.36-15.36-30.72-35.84-30.72 0 0 0 0 0 0z" />
<glyph unicode="&#xe943;" glyph-name="ico-flights-active" horiz-adv-x="1040" d="M393.216-64c-16.384 0-28.672 4.096-45.056 12.288-20.48 12.288-32.768 28.672-36.864 49.152l-65.536 180.224-184.32 69.632c-12.288 4.096-24.576 12.288-36.864 20.48-32.768 32.768-32.768 86.016-4.096 118.784 0 0 0 0 0 0l45.056 45.056c20.48 20.48 49.152 28.672 77.824 20.48l147.456-28.672 94.208 90.112-278.528 139.264c-8.192 4.096-16.384 8.192-20.48 16.384-32.768 32.768-36.864 81.92-4.096 114.688 0 0 0 0 0 0l40.96 40.96c20.48 20.48 45.056 28.672 73.728 24.576l458.752-73.728 147.456 143.36c57.344 53.248 143.36 53.248 196.608 0s53.248-139.264 0-192.512c0 0 0 0 0 0l-143.36-139.264 73.728-450.56c4.096-24.576-4.096-53.248-24.576-73.728l-40.96-40.96c-32.768-32.768-90.112-32.768-122.88 4.096-4.096 4.096-12.288 12.288-16.384 20.48l-143.36 278.528-90.112-98.304 28.672-147.456c4.096-28.672-4.096-57.344-24.576-73.728l-45.056-45.056c-12.288-12.288-24.576-16.384-40.96-20.48 0-4.096-8.192-4.096-16.384-4.096zM131.072 394.752c-8.192 0-12.288-4.096-16.384-8.192l-45.056-45.056c-8.192-8.192-8.192-24.576 0-32.768 0 0 0 0 0 0 0-4.096 4.096-4.096 8.192-8.192 0 0 4.096 0 4.096 0l196.608-73.728c8.192-4.096 16.384-8.192 16.384-16.384l73.728-192.512c0 0 0-4.096 0-4.096 0-8.192 4.096-12.288 12.288-16.384 4.096-4.096 12.288-4.096 20.48-4.096 4.096 0 8.192 4.096 12.288 8.192l45.056 45.056c4.096 4.096 8.192 12.288 8.192 20.48l-32.768 163.84c0 8.192 0 20.48 8.192 28.672l135.168 131.072c12.288 12.288 32.768 12.288 45.056 0 4.096-4.096 4.096-4.096 4.096-8.192l159.744-315.392c8.192-12.288 20.48-16.384 32.768-12.288 4.096 0 4.096 4.096 8.192 4.096l40.96 40.96c4.096 4.096 8.192 12.288 8.192 20.48l-81.92 471.040c0 8.192 0 20.48 8.192 24.576l155.648 151.552c28.672 28.672 28.672 77.824 0 110.592-32.768 28.672-81.92 28.672-110.592 0l-155.648-151.552c-8.192-8.192-16.384-8.192-24.576-8.192l-479.232 73.728c-8.192 0-16.384 0-20.48-8.192l-40.96-40.96c-8.192-8.192-8.192-24.576 0-32.768 0 0 0 0 0 0s4.096-4.096 8.192-4.096l319.488-159.744c8.192-4.096 16.384-12.288 16.384-20.48s0-20.48-8.192-24.576l-135.168-131.072c-8.192-8.192-16.384-8.192-28.672-8.192l-163.84 32.768c-4.096 0-4.096 0-4.096 0v0z" />
<glyph unicode="&#xe944;" glyph-name="ico-edit" horiz-adv-x="1029" d="M788.48 376.32c-25.6 0-46.080-20.48-46.080-40.96 0 0 0 0 0 0v-307.2h-655.36v650.24h261.12c25.6 0 46.080 20.48 46.080 46.080s-20.48 46.080-46.080 46.080c0 0 0 0 0 0h-307.2c-20.48-5.12-40.96-25.6-40.96-46.080 0 0 0 0 0 0v-742.4c0-25.6 20.48-46.080 40.96-46.080 0 0 0 0 0 0h747.52c25.6 0 46.080 20.48 40.96 46.080 0 0 0 0 0 0v348.16c5.12 25.6-15.36 46.080-40.96 46.080 0 0 0 0 0 0zM1013.76 765.44l-184.32 184.32c-15.36 15.36-46.080 15.36-61.44 0l-430.080-430.080c-10.24-10.24-10.24-15.36-15.36-25.6l-35.84-220.16c-5.12-25.6 10.24-46.080 35.84-51.2 0 0 5.12 0 5.12 0s5.12 0 5.12 0l220.16 35.84c10.24 0 15.36 5.12 25.6 10.24l435.2 435.2c15.36 15.36 15.36 40.96 0 61.44v0zM532.48 345.6l-148.48-25.6 25.6 148.48 271.36 271.36 122.88-122.88-271.36-271.36zM865.28 673.28l-122.88 122.88 56.32 61.44 122.88-122.88-56.32-61.44z" />
<glyph unicode="&#xe945;" horiz-adv-x="520" d="M428.066-64h-335.738c-52.039 0-92.328 40.289-92.328 92.328v335.738c0 52.039 40.289 92.328 92.328 92.328h335.738c52.039 0 92.328-40.289 92.328-92.328v-335.738c0-52.039-40.289-92.328-92.328-92.328zM92.328 439.607c-41.967 0-75.541-33.574-75.541-75.541v-335.738c0-41.967 33.574-75.541 75.541-75.541h335.738c41.967 0 75.541 33.574 75.541 75.541v335.738c0 41.967-33.574 75.541-75.541 75.541h-335.738z" />
<glyph unicode="&#xe946;" horiz-adv-x="520" d="M428.066 439.607h-335.738c-52.039 0-92.328 40.289-92.328 92.328v335.738c0 52.039 40.289 92.328 92.328 92.328h335.738c52.039 0 92.328-40.289 92.328-92.328v-335.738c0-52.039-40.289-92.328-92.328-92.328zM92.328 943.213c-41.967 0-75.541-33.574-75.541-75.541v-335.738c0-41.967 33.574-75.541 75.541-75.541h335.738c41.967 0 75.541 33.574 75.541 75.541v335.738c0 41.967-33.574 75.541-75.541 75.541h-335.738z" />
<glyph unicode="&#xe947;" horiz-adv-x="520" d="M213.193 113.941c-10.072 0-18.466 3.357-25.18 11.751l-67.148 73.862c-11.751 13.43-11.751 35.252 1.679 47.003s35.252 11.751 47.003-1.679l41.967-47.003 125.902 139.331c11.751 13.43 33.574 15.108 47.003 1.679 13.43-11.751 15.108-33.574 1.679-47.003l-151.082-166.19c-3.357-8.393-11.751-11.751-21.823-11.751z" />
<glyph unicode="&#xe948;" glyph-name="ico-check" horiz-adv-x="1324" d="M531.248 166.977v0c-30.797 0-61.594 15.398-84.692 38.496l-215.579 230.977c-46.195 46.195-38.496 123.188 7.699 161.684 46.195 46.195 123.188 38.496 161.684-7.699l130.887-138.586 392.662 431.158c46.195 46.195 115.489 53.895 161.684 7.699s53.895-115.489 7.699-161.684l-477.353-523.549c-23.098-30.797-53.895-38.496-84.692-38.496z" />
<glyph unicode="&#xe949;" glyph-name="ico-faq-active" horiz-adv-x="1336" d="M1219.896 643.896h-133.565v178.087c0 75.687-57.878 138.017-133.565 138.017h-823.652c-71.235 0-129.113-57.878-129.113-129.113v-458.574c0-71.235 57.878-133.565 129.113-133.565h115.757v-102.4c0-17.809 13.357-31.165 26.713-31.165 0 0 0 0 4.452 0 8.904 0 13.357 4.452 17.809 8.904l151.374 124.661h93.496v-31.165c0-80.139 62.33-142.47 142.47-142.47h316.104l129.113-120.209c4.452-4.452 13.357-8.904 22.261-8.904 4.452 0 8.904 0 13.357 4.452 8.904 4.452 17.809 17.809 17.809 26.713v97.948h22.261c75.687 0 133.565 62.33 133.565 133.565v329.461c0 66.783-53.426 115.757-115.757 115.757zM280.487 301.078h-151.374c-40.070 0-71.235 31.165-71.235 71.235v458.574c0 35.617 31.165 66.783 66.783 66.783h823.652c40.070 0 75.687-35.617 71.235-75.687v-449.67c0-40.070-31.165-75.687-75.687-75.687h-507.548c-8.904 0-13.357-4.452-17.809-8.904l-111.304-89.043v66.783c0 17.809-13.357 35.617-26.713 35.617 0 0 0 0 0 0zM605.496 238.748h347.27c75.687 0 133.565 62.33 133.565 138.017v204.8h133.565c31.165 0 53.426-22.261 53.426-53.426v-333.913c-4.452-35.617-35.617-66.783-71.235-66.783h-53.426c-17.809 0-31.165-13.357-31.165-31.165 0 0 0 0 0 0v-57.878l-89.043 80.139c-4.452 4.452-13.357 8.904-22.261 8.904h-325.009c-44.522 0-80.139 35.617-80.139 80.139l4.452 31.165zM583.235 470.261v-17.809c0-8.904-4.452-17.809-17.809-22.261 0 0-4.452 0-4.452 0h-17.809c-8.904 0-17.809 4.452-22.261 17.809 0 0 0 4.452 0 4.452v17.809c0 8.904 4.452 17.809 17.809 22.261 0 0 4.452 0 4.452 0h17.809c8.904 0 17.809-4.452 22.261-13.357 0-4.452 0-8.904 0-8.904zM667.826 697.322c0-75.687-80.139-89.043-84.591-142.47v-8.904c0-8.904-8.904-17.809-17.809-13.357 0 0 0 0 0 0h-17.809c-8.904 0-17.809 4.452-22.261 17.809 0 0 0 4.452 0 4.452v4.452c0 62.33 80.139 80.139 80.139 129.113 0 22.261-22.261 44.522-44.522 40.070 0 0 0 0 0 0-13.357 0-26.713-4.452-35.617-8.904-8.904-8.904-22.261-4.452-26.713 4.452 0 0 0 0 0 0l-17.809 13.357c-8.904 8.904-8.904 17.809 0 26.713 0 0 0 0 4.452 4.452 22.261 13.357 48.974 22.261 75.687 22.261 53.426 4.452 102.4-35.617 106.852-93.496 0 0 0 0 0 0v0z" />
<glyph unicode="&#xe94a;" d="M1000.186 448c0-269.618-218.568-488.186-488.186-488.186s-488.186 218.568-488.186 488.186c0 269.618 218.568 488.186 488.186 488.186s488.186-218.568 488.186-488.186z" />
<glyph unicode="&#xe94b;" d="M512-64c-283.386 0-512 228.614-512 512s228.614 512 512 512c283.386 0 512-228.614 512-512s-228.614-512-512-512zM512 912.372c-257.191 0-464.372-207.181-464.372-464.372s207.181-464.372 464.372-464.372c257.191 0 464.372 207.181 464.372 464.372s-207.181 464.372-464.372 464.372z" />
<glyph unicode="&#xe94c;" d="M426.27 312.26c0 0 0 0 0 0-14.288 0-26.195 4.763-35.721 16.67l-104.781 116.688c-16.67 19.051-16.67 50.009 2.381 66.679s50.009 16.67 66.679-2.381l71.442-78.586 202.419 223.851c16.67 19.051 47.628 21.433 66.679 2.381 19.051-16.67 21.433-47.628 2.381-66.679l-238.14-261.953c-7.144-11.907-19.051-16.67-33.34-16.67z" />
<glyph unicode="&#xe94d;" glyph-name="ico-plus" d="M434.176-23.040c0-24.576 24.576-40.96 49.152-40.96h65.536c24.576 0 49.152 16.384 49.152 40.96v385.024h385.024c24.576 0 40.96 24.576 40.96 49.152v65.536c0 24.576-16.384 49.152-40.96 49.152h-385.024v393.216c-8.192 24.576-24.576 40.96-49.152 40.96h-73.728c-24.576 0-40.96-16.384-40.96-40.96v-385.024h-385.024c-24.576-8.192-49.152-24.576-49.152-57.344v-65.536c0-24.576 24.576-49.152 49.152-49.152h385.024v-385.024z" />
<glyph unicode="&#xe94e;" glyph-name="tooltip-tip" horiz-adv-x="2185" d="M2183.579 961.032c-353.717 0-708.467-1025.29-1063.087-1025.29-374.099 0-748.199 1025.29-1120.492 1025.29 0 0 2187.707-4.128 2183.579 0z" />
<glyph unicode="&#xe94f;" horiz-adv-x="1638" d="M149.61 160.796c0-23.562 17.355-26.746 32.781-26.746 67.491 0 89.345 50.308 89.345 96.159 0 57.95-37.281 99.343-97.701 99.343-12.855 0-18.64-0.637-24.425-1.274v-167.483zM118.757 305.99c0 28.020-14.784 26.109-28.925 26.109v8.279c12.213-0.637 24.425-0.637 36.638-0.637 12.855 0 30.853 0.637 53.993 0.637 80.989 0 124.697-53.493 124.697-108.259 0-30.567-17.998-107.622-128.554-107.622-16.069 0-30.853 0.637-44.994 0.637s-27.639 0-41.78-0.637v8.279c18.64 1.91 27.639 2.547 28.925 23.562v149.652z" />
<glyph unicode="&#xe950;" horiz-adv-x="1638" d="M350.155 313.632c-8.356 0-15.426 7.642-15.426 15.284s7.713 14.647 15.426 14.647c8.356 0 15.426-6.368 15.426-14.647s-7.070-15.284-15.426-15.284v0zM316.731 132.776h5.785c8.999 0 14.784 0 14.784 10.189v84.060c0 13.373-4.499 15.284-16.069 21.652v5.095c14.784 4.458 32.139 10.189 33.424 10.826 1.928 1.274 3.857 1.274 5.785 1.274 1.286 0 1.928-1.91 1.928-4.458v-118.448c0-10.189 7.070-10.189 15.426-10.189h5.142v-8.279c-10.927 0-21.854 0.637-32.781 0.637s-22.497 0-34.067-0.637v8.279h0.643z" />
<glyph unicode="&#xe951;" horiz-adv-x="1638" d="M413.146 224.478c0 11.463-3.214 14.647-17.998 20.378v5.731c13.498 4.458 26.354 8.279 41.137 14.647 0.643 0 1.928-0.637 1.928-3.184v-20.378c17.998 12.736 33.424 22.925 53.993 22.925 26.354 0 35.995-19.104 35.995-43.303v-79.602c0-10.189 7.070-10.189 15.426-10.189h5.785v-8.279c-10.927 0-21.854 0.637-32.781 0.637s-22.497 0-33.424-0.637v8.279h5.785c8.999 0 14.784 0 14.784 10.189v80.876c0 17.831-10.927 26.109-28.925 26.109-10.284 0-25.711-8.279-35.995-14.647v-91.701c0-10.189 7.070-10.189 15.426-10.189h5.785v-8.279c-10.927 0-21.854 0.637-32.781 0.637s-22.497 0-33.424-0.637v8.279h5.785c8.999 0 14.784 0 14.784 10.189v82.149h-1.286z" />
<glyph unicode="&#xe952;" horiz-adv-x="1638" d="M628.474 220.020c7.713 0 8.999 3.821 8.999 7.642 0 15.92-9.642 28.657-26.996 28.657-19.283 0-32.139-14.010-35.995-36.299h53.993zM573.196 209.831c-0.643-2.547-0.643-7.642 0-17.831 1.928-29.294 21.211-53.493 45.637-53.493 17.355 0 30.853 9.552 42.423 20.378l4.499-4.458c-14.141-19.104-32.139-35.025-57.849-35.025-49.493 0-59.778 47.761-59.778 67.502 0 60.498 41.137 78.328 62.992 78.328 25.068 0 52.707-15.92 52.707-48.398 0-1.91 0-3.821 0-5.731l-2.571-1.91h-88.060v0.637z" />
<glyph unicode="&#xe953;" horiz-adv-x="1638" d="M670.897 132.776h8.356c8.999 0 14.784 0 14.784 10.189v86.607c0 9.552-11.57 11.463-16.069 14.010v4.458c22.497 9.552 35.352 17.831 37.923 17.831 1.928 0 2.571-0.637 2.571-3.821v-28.020h0.643c7.713 12.1 21.211 31.841 39.852 31.841 7.713 0 17.998-5.095 17.998-16.557 0-8.279-5.785-15.92-14.784-15.92-9.642 0-9.642 7.642-20.569 7.642-5.142 0-22.497-7.005-22.497-25.473v-72.597c0-10.189 6.428-10.189 14.784-10.189h17.355v-8.279c-17.355 0.637-30.21 0.637-43.708 0.637-12.855 0-25.711 0-37.281-0.637v8.279h0.643z" />
<glyph unicode="&#xe954;" horiz-adv-x="1638" d="M791.095 167.801c3.857-20.378 16.712-37.572 39.209-37.572 18.64 0 25.068 11.463 25.068 21.652 0 36.299-68.134 24.836-68.134 74.507 0 17.194 14.141 39.483 48.208 39.483 10.284 0 23.14-2.547 35.352-8.915l1.928-31.204h-7.070c-3.214 19.741-14.141 30.567-34.067 30.567-12.213 0-24.425-7.005-24.425-20.378 0-36.299 72.633-24.836 72.633-73.871 0-20.378-16.712-42.030-53.993-42.030-12.213 0-26.996 4.458-37.923 10.826l-3.214 35.662 6.428 1.274z" />
<glyph unicode="&#xe955;" horiz-adv-x="1638" d="M1162.617 284.338h-7.713c-5.785 36.299-32.139 50.945-66.848 50.945-35.995 0-88.060-23.562-88.060-98.070 0-62.408 44.994-107.622 93.202-107.622 30.853 0 56.564 21.015 62.992 53.493l7.070-1.91-7.070-45.214c-12.855-8.279-48.208-16.557-68.776-16.557-73.276 0-118.913 46.488-118.913 116.537 0 63.682 57.207 108.896 118.27 108.896 25.068 0 49.493-8.279 73.919-16.557l1.928-43.94z" />
<glyph unicode="&#xe956;" horiz-adv-x="1638" d="M1173.544 132.776h5.785c8.999 0 14.784 0 14.784 10.189v171.94c0 20.378-4.499 21.015-16.712 24.199v5.095c12.213 3.821 25.711 9.552 32.139 13.373 3.214 1.91 5.785 3.184 7.070 3.184 1.928 0 2.571-1.91 2.571-4.458v-213.333c0-10.189 7.070-10.189 15.426-10.189h5.142v-8.279c-10.284 0-21.211 0.637-32.781 0.637-10.927 0-22.497 0-34.067-0.637v8.279h0.643z" />
<glyph unicode="&#xe957;" horiz-adv-x="1638" d="M1374.088 141.692c0-5.731 3.214-5.731 8.999-5.731 3.857 0 8.356 0 12.213 0v-6.368c-13.498-1.274-39.209-7.642-44.994-9.552l-1.286 0.637v25.473c-18.64-15.284-32.781-26.109-55.278-26.109-16.712 0-34.067 10.826-34.067 36.935v78.965c0 8.279-1.286 15.92-18.64 17.194v5.731c10.927 0 35.995 1.91 40.495 1.91 3.214 0 3.214-1.91 3.214-8.915v-79.602c0-9.552 0-35.662 26.996-35.662 10.284 0 24.425 8.279 37.923 19.104v83.423c0 6.368-14.784 9.552-26.354 12.736v5.731c28.282 1.91 45.637 4.458 48.851 4.458 2.571 0 2.571-1.91 2.571-5.731v-114.627h-0.643z" />
<glyph unicode="&#xe958;" horiz-adv-x="1638" d="M1436.437 159.522c0-11.463 10.927-31.841 32.139-31.841 33.424 0 47.565 32.478 47.565 59.861 0 33.114-25.711 61.134-50.136 61.134-11.57 0-21.211-7.642-29.567-14.647v-74.507zM1436.437 243.582c12.213 10.189 29.567 22.289 46.279 22.289 35.995 0 57.849-31.204 57.849-64.955 0-40.756-30.21-80.876-74.561-80.876-23.14 0-35.352 7.642-43.066 10.826l-9.642-7.005-6.428 3.184c2.571 18.468 4.499 36.299 4.499 54.766v133.095c0 20.378-4.499 21.015-16.712 24.199v5.095c12.213 3.821 25.711 9.552 32.139 13.373 3.214 1.91 5.785 3.184 7.070 3.184 1.928 0 2.571-1.91 2.571-4.458v-112.716z" />
<glyph unicode="&#xe959;" horiz-adv-x="1638" d="M89.833-55.085h2.571c5.785 0 12.855 0.637 12.855 9.552v87.881c0 8.915-6.428 9.552-12.855 9.552h-2.571v5.095c6.428 0 16.712-0.637 25.068-0.637s18.64 0.637 26.354 0.637v-5.095h-2.571c-5.785 0-12.855-0.637-12.855-9.552v-87.881c0-8.915 6.428-9.552 12.855-9.552h2.571v-5.095c-8.356 0-18.64 0.637-26.996 0.637s-18.64-0.637-25.068-0.637v5.095h0.643z" />
<glyph unicode="&#xe95a;" horiz-adv-x="1638" d="M141.254-59.542v3.821h-1.928c-5.785 0-13.498 1.274-13.498 10.189v87.881c0 9.552 7.070 10.189 13.498 10.189h1.928v3.821c-7.713 0-17.998-0.637-25.711-0.637-8.356 0-17.998 0.637-24.425 0.637v-3.821h1.928c5.785 0 13.498-1.274 13.498-10.189v-87.881c0-9.552-7.070-10.189-13.498-10.189h-2.571v-3.821c6.428 0 16.069 0.637 24.425 0.637s17.998-0.637 26.354-0.637v0zM141.897-60.816c-8.356 0-18.64 0.637-26.996 0.637s-17.998-0.637-25.068-0.637h-0.643v6.368h3.214c6.428 0 11.57 0.637 11.57 8.915v87.881c0 8.279-5.785 8.915-11.57 8.915h-3.214v6.368h0.643c6.428 0 16.712-0.637 25.068-0.637s18.64 0.637 26.354 0.637h0.643v-6.368h-3.214c-6.428 0-11.57-0.637-11.57-8.915v-87.881c0-8.279 5.785-8.915 11.57-8.915h3.214v-6.368z" />
<glyph unicode="&#xe95b;" horiz-adv-x="1638" d="M258.239-27.065v0l0.643 63.682c0 14.010-9.642 15.92-14.784 15.92h-3.857v4.458c7.713 0 16.069-0.637 23.783-0.637 7.070 0 14.141 0.637 20.569 0.637v-5.095h-2.571c-7.070 0-15.426-1.274-15.426-21.652v-76.418c0-5.731 0-12.1 1.286-17.194h-6.428l-87.417 96.796v-69.413c0-14.647 2.571-19.741 16.069-19.741h3.214v-5.095c-7.070 0-14.784 0.637-21.854 0.637-7.713 0-15.426-0.637-23.14-0.637v5.095h2.571c11.57 0 15.426 7.642 15.426 21.015v70.687c0 9.552-7.713 15.284-15.426 15.284h-1.928v5.731c6.428 0 12.855-0.637 19.283-0.637 5.142 0 10.284 0.637 15.426 0.637l74.561-84.060z" />
<glyph unicode="&#xe95c;" horiz-adv-x="1638" d="M261.452-62.090h5.785c-0.643 5.095-0.643 10.826-0.643 16.557v76.418c0 20.378 8.356 22.289 16.069 22.289h1.928v3.821c-6.428 0-13.498-0.637-19.926-0.637-7.713 0-15.426 0.637-23.14 0.637v-3.821h3.214c5.142 0 15.426-2.547 15.426-16.557v-63.682l-1.286-1.274-75.204 84.697c-5.142 0-9.642-0.637-15.426-0.637-6.428 0-12.855 0.637-18.64 0.637v-3.821h1.286c7.713 0 16.069-5.731 16.069-15.92v-70.687c0-13.373-3.857-22.289-16.069-22.289h-1.928v-3.821c7.070 0 14.784 0.637 22.497 0.637 7.070 0 14.141-0.637 21.211-0.637v3.821h-1.928c-13.498 0-16.712 5.731-16.712 20.378v71.323l87.417-97.433zM267.88-63.363h-7.070l-85.488 95.522v-67.502c0-14.647 2.571-18.468 15.426-19.104h3.857v-6.368h-0.643c-7.070 0-14.784 0.637-21.854 0.637-7.713 0-15.426-0.637-23.14-0.637h-0.643v6.368h3.214c10.927 0 14.141 7.005 14.784 20.378v70.687c0 8.915-7.713 14.647-14.784 14.647h-3.214v6.368h0.643c6.428 0 12.855-0.637 19.283-0.637 5.142 0 10.284 0.637 15.426 0.637l74.561-83.423v61.771c0 13.373-8.999 15.284-14.141 15.284h-4.499v6.368h0.643c7.713 0 16.069-0.637 23.783-0.637 7.070 0 14.141 0.637 20.569 0.637h0.643v-6.368h-3.214c-7.070 0-14.141-0.637-14.141-20.378v-76.418c0-5.731 0-11.463 1.286-16.557v-0.637h-1.286v-0.637z" />
<glyph unicode="&#xe95d;" horiz-adv-x="1638" d="M310.303 48.716c-12.855 0-13.498-3.184-16.069-15.284h-5.142c0.643 4.458 1.286 9.552 1.928 14.010s1.286 9.552 1.286 14.010h3.857c1.286-5.095 5.785-5.095 10.284-5.095h87.417c4.499 0 8.999 0 8.999 5.095l3.857-0.637c-0.643-4.458-1.286-8.915-1.928-13.373s-0.643-8.915-0.643-13.373l-5.142-1.91c-0.643 6.368-1.286 15.92-12.855 15.92h-27.639v-89.791c0-12.736 5.785-14.647 14.141-14.647h3.214v-5.095c-6.428 0-18.64 0.637-27.639 0.637-10.284 0-21.854-0.637-28.925-0.637v5.095h3.214c9.642 0 14.141 0.637 14.141 14.010v89.791h-26.354v1.274z" />
<glyph unicode="&#xe95e;" horiz-adv-x="1638" d="M377.151-60.816c-6.428 0-18.64 0.637-27.639 0.637-10.284 0-21.854-0.637-28.925-0.637h-0.643v6.368h3.857c9.642 0 12.855 0.637 13.498 13.373v89.154h-26.996v1.274h28.282v-90.428c0-13.373-5.785-14.647-14.784-14.647h-2.571v-3.821c6.428 0 17.998 0.637 28.282 0.637 8.999 0 19.926-0.637 26.996-0.637v3.821h-2.571c-8.356 0-14.784 1.91-14.784 15.284v90.428h28.282c11.57 0 12.855-9.552 13.498-15.92l3.857 1.274c0 4.458 0 8.915 0.643 13.373s1.286 8.915 1.928 12.736l-2.571 0.637c-0.643-5.095-5.785-5.095-9.642-5.095h-89.345c-3.857 0-8.356 0-9.642 5.095h-2.571c0-4.458-0.643-8.915-1.286-13.373s-1.286-8.915-1.928-13.373h3.857c1.928 11.463 3.857 15.284 16.069 15.284v-1.274c-12.855 0-12.213-2.547-14.784-14.647v-0.637h-6.428v0.637c0.643 4.458 1.286 9.552 1.928 14.010s1.286 9.552 1.286 14.010v0.637h5.142v-0.637c1.286-4.458 4.499-4.458 8.356-4.458h88.060c4.499 0 8.356 0 8.356 4.458v0.637h0.643l4.499-0.637v-0.637c-0.643-4.458-1.286-8.915-1.928-13.373 0-4.458 0-8.915 0-13.373v-0.637h-0.643l-5.785-1.91v1.274c-0.643 6.368-1.286 15.284-11.57 15.284h-26.996v-88.517c0-12.736 5.142-13.373 13.498-14.010h3.857v-6.368h-0.643v-1.274z" />
<glyph unicode="&#xe95f;" horiz-adv-x="1638" d="M413.146-55.085h2.571c5.785 0 12.855 0.637 12.855 9.552v87.881c0 8.915-6.428 9.552-12.855 9.552h-2.571v5.095c10.284 0 28.282-0.637 42.423-0.637s32.139 0.637 43.708 0.637c0-7.005 0-18.468 0.643-25.473l-5.142-1.274c-0.643 10.826-2.571 19.741-20.569 19.741h-23.783v-43.94h19.926c10.284 0 12.213 5.731 13.498 14.647h5.142c-0.643-6.368-0.643-13.373-0.643-19.741s0-12.736 0.643-19.104l-5.142-1.274c-1.286 10.189-1.286 16.557-13.498 16.557h-20.569v-39.483c0-10.826 9.642-10.826 20.569-10.826 20.569 0 29.567 1.274 34.71 20.378l4.499-1.274c-1.928-8.915-4.499-17.831-5.785-26.746-10.927 0-30.21 0.637-45.637 0.637s-35.352-0.637-44.994-0.637v5.731z" />
<glyph unicode="&#xe960;" horiz-adv-x="1638" d="M503.134-59.542c1.286 8.279 3.214 17.194 5.785 25.473l-3.214 0.637c-5.142-19.104-14.784-20.378-34.71-20.378-10.927 0-21.211 0-21.211 11.463v40.119h21.211c11.57 0 12.855-7.005 14.141-16.557l3.857 0.637c-0.643 6.368-0.643 12.736-0.643 18.468 0 6.368 0 12.736 0.643 19.104h-5.142c-0.643-8.915-3.857-14.647-14.141-14.647h-21.211v45.851h24.425c17.355 0 20.569-8.915 21.211-19.741l3.857 1.274c0 4.458-0.643 10.826-0.643 16.557 0 3.184 0 5.731 0 8.279-11.57 0-28.925-0.637-42.423-0.637-14.141 0-30.853 0.637-41.78 0.637v-3.821h1.928c5.785 0 13.498-1.274 13.498-10.189v-87.881c0-9.552-7.070-10.189-13.498-10.189h-1.928v-3.821c9.642 0 29.567 0.637 44.351 0.637 15.426-0.637 34.71-1.274 45.637-1.274v0zM503.777-60.816c-10.927 0-30.21 0.637-45.637 0.637s-35.352-0.637-44.994-0.637h-0.643v6.368h3.214c6.428 0 11.57 0.637 11.57 8.915v87.881c0 8.279-5.785 8.915-11.57 8.915h-3.214v6.368h0.643c10.284 0 28.282-0.637 42.423-0.637s32.139 0.637 43.708 0.637h0.643v-0.637c0-2.547 0-5.731 0-8.915 0-5.731 0-12.1 0.643-17.194v-0.637h-0.643l-5.785-1.274v0.637c-1.286 10.826-2.571 19.104-19.926 19.104h-23.14v-42.667h19.283c9.642 0 11.57 5.095 12.855 14.010v0.637h6.428v-0.637c-0.643-6.368-0.643-13.373-0.643-19.741s0-12.736 0.643-19.104v-0.637h-0.643l-5.785-1.274v0.637c-1.286 10.189-1.286 15.92-12.213 15.92h-19.926v-38.209c0-10.189 8.999-10.189 19.926-10.189 20.569 0 28.925 1.274 34.067 19.741v0.637h0.643l5.142-1.274v-0.637c-1.928-8.915-4.499-17.831-5.785-26.746h-1.286z" />
<glyph unicode="&#xe961;" horiz-adv-x="1638" d="M554.556 0.318h8.356c16.712 0 26.354 6.368 26.354 26.109 0 14.647-9.642 24.836-25.068 24.836-5.142 0-7.070-0.637-9.642-0.637v-50.308zM532.702 39.164c0 12.1-7.070 12.736-12.213 12.736h-3.214v5.095c5.142 0 16.069-0.637 26.354-0.637s18.64 0.637 27.639 0.637c21.211 0 40.495-5.731 40.495-29.93 0-15.284-10.284-24.199-23.783-29.93l28.925-43.303c4.499-7.005 8.356-8.915 16.712-10.189v-5.095c-5.785 0-10.927 0.637-16.712 0.637-5.142 0-10.927-0.637-16.069-0.637-12.855 17.194-24.425 35.025-35.352 54.766h-10.927v-36.299c0-12.736 5.785-13.373 14.141-13.373h3.214v-5.095c-9.642 0-19.283 0.637-28.925 0.637-8.356 0-16.069-0.637-24.425-0.637v5.095h3.214c6.428 0 12.213 2.547 12.213 8.915v86.607h-1.286z" />
<glyph unicode="&#xe962;" horiz-adv-x="1638" d="M562.269 0.955c16.712 0 25.068 5.731 25.711 25.473 0 14.647-8.999 23.562-24.425 24.199-4.499 0-6.428-0.637-8.999-0.637v-49.035h7.713zM554.556-0.318h-0.643v51.582h0.643c2.571 0 4.499 0.637 9.642 0.637 15.426 0 25.711-10.189 25.711-25.473 0-20.378-9.642-26.746-26.996-26.746h-8.356zM554.556-4.776h11.57v-0.637c10.927-19.104 22.497-37.572 34.71-54.129 5.142 0 10.927 0.637 16.069 0.637s10.927-0.637 16.069-0.637v3.821c-7.713 1.274-11.57 3.184-16.069 10.189l-29.567 43.94 0.643 0.637c13.498 5.095 23.14 14.010 23.14 28.657 0 23.562-18.64 28.657-39.852 28.657-8.999 0-17.355-0.637-27.639-0.637s-19.926 0.637-25.711 0.637v-3.821h2.571c5.142 0 12.855-0.637 12.855-13.373v-85.333c0-7.005-6.428-9.552-12.855-9.552h-2.571v-3.821c8.356 0 16.069 0.637 23.783 0.637 9.642 0 19.283-0.637 28.282-0.637v3.821h-2.571c-7.713 0-14.784 1.274-14.784 14.010v36.935h1.928zM633.617-60.816c-5.785 0-10.927 0.637-16.712 0.637-5.142 0-10.284-0.637-16.712-0.637-12.855 17.194-24.425 35.025-35.352 54.129h-10.284v-35.025c0-12.736 5.142-12.736 12.855-12.736h3.857v-6.368h-0.643c-9.642 0-19.283 0.637-28.925 0.637-8.356 0-16.069-0.637-24.425-0.637h-0.643v6.368h3.857c5.785 0 11.57 2.547 11.57 8.279v85.333c0 12.1-5.785 12.1-11.57 12.1h-3.857v6.368h0.643c5.785 0 16.069-0.637 26.354-0.637s17.998 0.637 27.639 0.637c21.211 0 41.137-5.731 41.137-30.567 0-15.284-10.284-24.836-23.14-29.93l28.282-42.030c4.499-7.005 7.713-8.915 16.069-9.552h0.643v-6.368h-0.643z" />
<glyph unicode="&#xe963;" horiz-adv-x="1638" d="M748.673-27.065v0 63.682c0 14.010-9.642 15.92-14.784 15.92h-3.857v4.458c7.713 0 16.069-0.637 23.783-0.637 7.070 0 14.141 0.637 21.211 0.637v-5.095h-2.571c-7.070 0-15.426-1.274-15.426-21.652v-76.418c0-5.731 0-12.1 1.286-17.194h-6.428l-87.417 96.796v-69.413c0-14.647 2.571-19.741 16.069-19.741h2.571v-5.095c-7.070 0-14.784 0.637-21.854 0.637-7.713 0-15.426-0.637-23.14-0.637v5.095h2.571c11.57 0 15.426 7.642 15.426 21.015v70.687c0 9.552-7.713 15.284-15.426 15.284h-1.928v5.731c6.428 0 12.855-0.637 19.283-0.637 5.142 0 10.284 0.637 14.784 0.637l75.847-84.060z" />
<glyph unicode="&#xe964;" horiz-adv-x="1638" d="M751.886-62.090h5.785c-0.643 5.095-0.643 10.826-0.643 16.557v76.418c0 20.378 8.356 22.289 16.069 22.289h1.928v3.821c-6.428 0-13.498-0.637-19.926-0.637-7.713 0-15.426 0.637-23.14 0.637v-3.821h3.214c5.142 0 15.426-2.547 15.426-16.557v-64.318l-0.643-0.637-75.847 84.697c-5.142 0-10.284-0.637-15.426-0.637-6.428 0-12.855 0.637-18.64 0.637v-3.821h1.286c7.713 0 16.069-5.731 16.069-15.92v-70.687c0-13.373-3.857-22.289-16.069-22.289h-1.928v-3.821c7.070 0 14.784 0.637 22.497 0.637 7.070 0 14.141-0.637 21.211-0.637v3.821h-1.928c-13.498 0-16.712 5.731-16.712 20.378v71.323l87.417-97.433zM758.314-63.363h-7.070l-86.131 94.886v-67.502c0-14.647 2.571-19.104 15.426-19.104h3.857v-6.368h-0.643c-7.070 0-14.784 0.637-21.854 0.637-7.713 0-15.426-0.637-23.14-0.637h-0.643v6.368h3.214c10.927 0 14.141 7.005 14.784 20.378v70.687c0 8.915-7.713 14.647-14.784 14.647h-3.214v6.368h0.643c6.428 0 12.855-0.637 19.283-0.637 5.142 0 9.642 0.637 15.426 0.637l74.561-83.423v61.771c0 13.373-8.999 15.284-14.141 15.284h-4.499v6.368h0.643c7.713 0 16.069-0.637 23.783-0.637 7.070 0 14.141 0.637 20.569 0.637h0.643v-6.368h-3.214c-7.070 0-14.141-0.637-14.141-20.378v-76.418c0-5.731 0-11.463 1.286-17.194v-0.637h-0.643v0.637z" />
<glyph unicode="&#xe965;" horiz-adv-x="1638" d="M827.091 38.527v0l-16.069-47.761h31.496l-15.426 47.761zM802.665-35.98c-1.928-5.731-3.857-10.189-3.857-13.373 0-5.095 7.070-5.731 12.855-5.731h1.928v-5.095c-7.070 0.637-13.498 0.637-20.569 0.637-6.428 0-12.213 0-18.64-0.637v5.095h1.286c6.428 0 12.213 3.821 14.784 10.826l26.996 77.055c1.928 6.368 5.142 14.647 6.428 21.015 5.142 1.91 12.213 5.095 15.426 7.005 0.643 0 0.643 0.637 1.286 0.637s0.643 0 1.286-0.637c0.643-1.274 1.286-2.547 1.286-4.458l31.496-87.881c1.928-5.731 3.857-12.1 6.428-17.194 1.928-4.458 5.785-7.005 11.57-7.005h1.286v-5.095c-7.713 0.637-15.426 0.637-23.14 0.637-8.356 0-16.712 0-25.711-0.637v5.095h1.928c3.857 0 10.284 0.637 10.284 5.095 0 1.91-1.286 7.005-3.214 12.1l-6.428 19.741h-38.566l-6.428-17.194z" />
<glyph unicode="&#xe966;" horiz-adv-x="1638" d="M812.307-8.597h29.567l-14.784 45.214-14.784-45.214zM810.379-9.871l16.069 49.035h1.929l16.069-49.035h-34.067zM845.088-59.542c8.356 0 16.712 0.637 25.068 0.637 7.713 0 15.426-0.637 22.497-0.637v3.821c-5.785 0-9.642 1.91-12.213 7.005-1.928 5.095-4.499 11.463-6.428 17.194l-31.496 87.881c-0.643 1.274-1.286 2.547-1.286 3.821 0 0 0 0 0 0v0c-0.643 0-0.643 0-1.286 0-3.214-1.91-10.284-5.731-15.426-7.005-1.286-6.368-3.857-14.647-6.428-21.015l-26.996-77.055c-2.571-7.005-8.356-11.463-15.426-11.463v0-3.821c5.785 0 11.57 0.637 17.355 0.637 6.428 0 13.498-0.637 19.926-0.637v3.821h-1.286c-5.785 0-13.498 0.637-13.498 6.368 0 3.184 1.928 7.642 3.857 13.373v0l5.785 17.831h39.852l7.070-19.741c1.928-5.095 3.214-10.189 3.214-12.1 0-5.095-7.713-5.731-11.57-5.731h-1.286v-3.184zM892.653-60.816c-7.713 0.637-15.426 0.637-23.14 0.637-8.356 0-16.712-0.637-25.711-0.637h-0.643v6.368h2.571c3.857 0 9.642 0.637 9.642 3.821 0 1.91-1.286 6.368-3.214 12.1l-6.428 19.104h-37.281l-5.142-17.194c-1.928-5.731-3.857-10.189-3.857-12.736 0-3.821 6.428-5.095 12.213-5.095h2.571v-6.368h-0.643c-7.070 0.637-13.498 0.637-20.569 0.637-5.785 0-12.213-0.637-17.998-0.637h-0.643v6.368h1.928c6.428 0 11.57 3.821 14.141 10.189l26.996 77.055c1.928 6.368 5.142 14.647 6.428 21.015 5.142 1.91 12.213 5.095 15.426 7.005 0.643 0 0.643 0.637 1.928 0.637 0.643 0 1.286 0 1.928-1.274s1.286-3.184 1.286-4.458l31.496-87.881c1.928-5.731 3.857-12.1 6.428-17.194 1.928-4.458 5.142-6.368 10.284-6.368h1.928v-6.368l-1.928 1.274z" />
<glyph unicode="&#xe967;" horiz-adv-x="1638" d="M900.366 48.716c-12.855 0-13.498-3.184-16.069-15.284h-5.142c0.643 4.458 1.286 9.552 1.928 14.010s1.286 9.552 1.286 14.010h3.857c1.286-5.095 5.785-5.095 10.284-5.095h87.417c4.499 0 8.999 0 8.999 5.095l3.857-0.637c-0.643-4.458-1.286-8.915-1.928-13.373s-0.643-8.915-0.643-13.373l-5.142-1.91c0 6.368-1.286 15.92-12.855 15.92h-27.639v-89.791c0-12.736 5.785-14.647 14.141-14.647h3.214v-5.095c-6.428 0-18.64 0.637-27.639 0.637-10.284 0-21.854-0.637-28.925-0.637v5.095h3.214c9.642 0 14.141 0.637 14.141 14.010v89.791h-26.354v1.274z" />
<glyph unicode="&#xe968;" horiz-adv-x="1638" d="M967.215-60.816c-6.428 0-18.64 0.637-27.639 0.637-10.284 0-21.854-0.637-28.925-0.637h-0.643v6.368h3.857c9.642 0 12.855 0.637 13.498 13.373v89.154h-26.996v1.274h28.282v-90.428c0-13.373-5.785-14.647-14.784-14.647h-2.571v-3.821c6.428 0 17.998 0.637 28.282 0.637 8.999 0 19.926-0.637 26.996-0.637v3.821h-2.571c-8.356 0-14.784 1.91-14.784 15.284v90.428h28.282c11.57 0 12.855-9.552 13.498-15.92l3.857 1.274c0 4.458 0 8.915 0.643 13.373s1.286 8.915 1.928 12.736l-2.571 0.637c-0.643-5.095-5.785-5.095-9.642-5.095h-88.060c-3.857 0-8.356 0-9.642 5.095h-2.571c0-4.458-0.643-8.915-1.286-13.373s-1.286-8.915-1.928-13.373h3.857c1.928 11.463 3.857 15.284 16.712 15.284v-1.274c-12.855 0-12.213-2.547-14.784-14.647v-0.637h-6.428v0.637c0.643 4.458 1.286 9.552 1.928 14.010s1.286 9.552 1.286 14.010v0.637h5.142v-0.637c1.286-4.458 4.499-4.458 8.356-4.458h88.060c4.499 0 8.356 0 8.356 4.458v0.637h0.643l5.142-0.637v-0.637c-0.643-4.458-1.286-8.915-1.928-13.373s-0.643-8.915-0.643-13.373v-0.637h-0.643l-5.785-1.91v1.274c-0.643 6.368-1.286 15.284-11.57 15.284h-26.996v-88.517c0-12.736 5.142-13.373 13.498-14.010h3.857v-6.368h-2.571v-1.274z" />
<glyph unicode="&#xe969;" horiz-adv-x="1638" d="M1003.852-55.085h2.571c6.428 0 12.855 0.637 12.855 9.552v87.881c0 8.915-6.428 9.552-12.855 9.552h-2.571v5.095c6.428 0 16.712-0.637 25.068-0.637s18.64 0.637 26.996 0.637v-5.095h-2.571c-6.428 0-12.855-0.637-12.855-9.552v-87.881c0-8.915 6.428-9.552 12.855-9.552h2.571v-5.095c-8.356 0-18.64 0.637-26.996 0.637s-18.64-0.637-25.068-0.637v5.095z" />
<glyph unicode="&#xe96a;" horiz-adv-x="1638" d="M1055.274-59.542v3.821h-1.286c-5.785 0-13.498 1.274-13.498 10.189v87.881c0 9.552 7.070 10.189 13.498 10.189h1.286v3.821c-7.713 0-17.355-0.637-25.711-0.637s-17.998 0.637-24.425 0.637v-3.821h1.928c5.785 0 13.498-1.274 13.498-10.189v-87.881c0-9.552-7.070-10.189-13.498-10.189h-2.571v-3.821c6.428 0 16.069 0.637 24.425 0.637s17.998-0.637 26.354-0.637v0zM1055.917-60.816c-8.356 0-18.64 0.637-26.996 0.637s-18.64-0.637-25.068-0.637h-0.643v6.368h3.214c6.428 0 11.57 0.637 11.57 8.915v87.881c0 8.279-5.785 8.915-11.57 8.915h-3.214v6.368h0.643c6.428 0 16.712-0.637 25.068-0.637s18.64 0.637 26.996 0.637h0.643v-6.368h-3.214c-6.428 0-11.57-0.637-11.57-8.915v-87.881c0-8.279 5.785-8.915 11.57-8.915h3.214v-6.368h-0.643z" />
<glyph unicode="&#xe96b;" horiz-adv-x="1638" d="M1125.979-55.721c32.781 0 38.566 28.657 38.566 53.493s-13.498 54.129-41.78 54.129c-29.567 0-38.566-26.109-38.566-49.035 0.643-29.294 14.141-58.587 41.78-58.587zM1123.408 59.542c35.995 0 64.92-22.289 64.92-57.95 0-38.846-28.282-64.318-64.277-64.318s-63.634 24.199-63.634 60.498c0.643 35.025 27.639 61.771 62.992 61.771z" />
<glyph unicode="&#xe96c;" horiz-adv-x="1638" d="M1084.199 3.502c0 22.925 8.999 49.672 39.209 49.672 28.925 0 42.423-30.567 42.423-55.403s-5.785-54.129-39.209-54.129v1.274c32.139 0 37.923 28.020 37.923 52.856 0 24.199-13.498 53.493-41.137 53.493-28.925 0-37.923-25.473-37.923-47.761 0-29.93 14.141-57.95 40.495-57.95v-1.274c-28.282-0.637-41.78 28.657-41.78 59.224zM1060.416-2.229c0 35.662 27.639 63.045 63.634 63.045v-1.274c-34.71 0-61.706-26.746-61.706-61.134 0-35.662 26.996-59.861 62.992-59.861s63.634 25.473 63.634 63.682c0 35.662-28.282 57.313-64.277 57.313v1.274c36.638 0 65.563-22.289 65.563-58.587 0-38.846-28.282-64.955-64.92-64.955-37.281-0.637-64.92 23.562-64.92 60.498z" />
<glyph unicode="&#xe96d;" horiz-adv-x="1638" d="M1302.741-27.065v0l0.643 63.682c0 14.010-9.642 15.92-14.784 15.92h-3.857v4.458c7.713 0 16.069-0.637 23.783-0.637 7.070 0 14.141 0.637 21.211 0.637v-5.095h-2.571c-7.070 0-15.426-1.274-15.426-21.652v-76.418c0-5.731 0-12.1 1.286-17.194h-6.428l-87.417 96.796v-69.413c0-14.647 3.214-19.741 16.069-19.741h3.214v-5.095c-7.070 0-14.784 0.637-21.854 0.637-7.713 0-15.426-0.637-23.14-0.637v5.095h2.571c11.57 0 15.426 7.642 15.426 21.015v70.687c0 9.552-7.713 15.284-15.426 15.284h-1.928v5.731c6.428 0 12.855-0.637 19.283-0.637 5.142 0 10.284 0.637 14.784 0.637l74.561-84.060z" />
<glyph unicode="&#xe96e;" horiz-adv-x="1638" d="M1306.597-62.090h5.785c-0.643 5.095-0.643 10.826-0.643 16.557v76.418c0 20.378 8.356 22.289 16.069 22.289h1.928v3.821c-6.428 0-13.498-0.637-19.926-0.637-7.713 0-15.426 0.637-23.14 0.637v-3.821h3.214c5.142 0 15.426-2.547 15.426-16.557v-63.682l-1.286-1.274-75.847 84.697c-5.142 0-10.284-0.637-15.426-0.637-6.428 0-12.855 0.637-18.64 0.637v-3.821h1.286c7.713 0 16.069-5.731 16.069-15.92v-70.687c0-13.373-3.857-22.289-16.069-22.289h-1.928v-3.821c7.070 0 14.784 0.637 22.497 0.637 7.070 0 14.141-0.637 21.211-0.637v3.821h-1.928c-13.498 0-16.712 5.731-16.712 20.378v71.323l88.060-97.433zM1313.025-63.363h-7.070l-86.131 94.886v-67.502c0-14.647 2.571-18.468 15.426-19.104h3.857v-6.368h-0.643c-7.070 0-14.784 0.637-21.854 0.637-7.713 0-15.426-0.637-23.14-0.637h-0.643v6.368h3.214c10.927 0 14.141 7.005 14.784 20.378v70.687c0 8.915-7.713 14.647-14.784 14.647h-3.214v6.368h0.643c6.428 0 12.855-0.637 19.283-0.637 5.142 0 9.642 0.637 15.426 0.637l74.561-83.423v61.771c0 13.373-8.999 15.284-14.141 15.284h-4.499v6.368h0.643c7.713 0 16.069-0.637 23.783-0.637 7.070 0 14.141 0.637 21.211 0.637h0.643v-6.368h-3.214c-7.070 0-14.141-0.637-14.141-20.378v-76.418c0-5.731 0-11.463 0.643-17.194v-0.637h-0.643v0.637z" />
<glyph unicode="&#xe96f;" horiz-adv-x="1638" d="M1381.802 38.527v0l-16.069-47.761h31.496l-15.426 47.761zM1356.734-35.98c-1.928-5.731-3.857-10.189-3.857-13.373 0-5.095 7.070-5.731 12.855-5.731h1.928v-5.095c-7.070 0.637-13.498 0.637-20.569 0.637-6.428 0-12.213 0-17.998-0.637v5.095h1.286c6.428 0 12.213 3.821 14.784 10.826l26.996 77.055c1.928 6.368 5.142 14.647 6.428 21.015 5.142 1.91 12.213 5.095 15.426 7.005 0.643 0 0.643 0.637 1.286 0.637s0.643 0 1.286-0.637c0.643-1.274 1.286-2.547 1.286-4.458l31.496-87.881c1.928-5.731 3.857-12.1 6.428-17.194 1.928-4.458 5.785-7.005 10.927-7.005h1.286v-5.095c-7.713 0.637-15.426 0.637-23.14 0.637-8.356 0-16.712 0-25.711-0.637v5.095h1.928c3.857 0 10.284 0.637 10.284 5.095 0 1.91-1.286 7.005-3.214 12.1l-6.428 19.741h-38.566l-6.428-17.194z" />
<glyph unicode="&#xe970;" horiz-adv-x="1638" d="M1366.375-8.597h29.567l-14.784 45.214-14.784-45.214zM1364.447-9.871l16.069 49.035h1.929l16.069-49.035h-34.067zM1399.156-59.542c8.356 0 16.712 0.637 25.068 0.637 7.713 0 15.426-0.637 22.497-0.637v3.821c-5.785 0-9.642 1.91-11.57 7.005s-4.499 11.463-6.428 17.194l-31.496 87.881c-0.643 1.274-1.286 2.547-1.286 3.821 0 0 0 0 0 0h-0.643c-0.643 0-0.643 0-0.643 0-3.214-1.91-10.284-5.731-15.426-7.005-1.286-6.368-3.857-14.647-6.428-21.015l-26.996-77.055c-2.571-7.005-8.356-11.463-15.426-11.463v0-3.821c5.785 0 11.57 0.637 17.355 0.637 6.428 0 13.498-0.637 19.926-0.637v3.821h-1.286c-5.785 0-13.498 0.637-13.498 6.368 0 3.184 1.928 7.642 3.857 13.373v0l5.785 17.831h39.852l7.070-19.741c1.928-5.095 3.214-10.189 3.214-12.1 0-5.095-7.070-5.731-10.927-5.731h-1.286v-3.184h-1.286zM1447.364-60.816c-7.713 0-15.426 0.637-23.14 0.637-8.356 0-16.712-0.637-25.711-0.637h-0.643v6.368h2.571c3.857 0 9.642 0.637 9.642 4.458 0 1.91-1.286 6.368-3.214 12.1l-6.428 19.104h-37.281l-5.142-17.194c-1.928-5.731-3.857-10.189-3.857-12.736 0-3.821 6.428-5.095 12.213-5.095h2.571v-6.368h-0.643c-7.070 0-13.498 0.637-20.569 0.637-5.785 0-12.213-0.637-17.998-0.637h-0.643v6.368h1.928c6.428 0 11.57 3.821 14.141 10.189l26.996 77.055c1.928 6.368 5.142 14.647 6.428 21.015 5.142 1.91 12.213 5.095 15.426 7.005 0.643 0 0.643 0.637 1.928 0.637 0.643 0 1.286 0 1.928-1.274s1.286-2.547 1.286-4.458l31.496-87.881c1.928-5.731 3.857-12.1 6.428-17.194 1.928-4.458 5.142-6.368 10.284-6.368h1.928v-6.368l-1.928 0.637z" />
<glyph unicode="&#xe971;" horiz-adv-x="1638" d="M1490.43-43.622c0-7.005 4.499-8.915 10.284-9.552 7.070-0.637 14.784-0.637 22.497 0.637 7.070 0.637 13.498 5.095 16.069 8.915s4.499 8.279 5.142 12.1h5.142c-1.928-9.552-4.499-19.104-6.428-28.657-14.784 0-30.21 0.637-44.994 0.637s-30.21-0.637-44.994-0.637v5.095h2.571c6.428 0 12.855 0.637 12.855 11.463v86.607c0 8.915-6.428 9.552-12.855 9.552h-2.571v4.458c8.999 0 17.998-0.637 26.996-0.637 8.356 0 17.355 0.637 25.711 0.637v-5.095h-4.499c-6.428 0-11.57 0-11.57-8.915v-86.607h0.643z" />
<glyph unicode="&#xe972;" horiz-adv-x="1638" d="M1542.494-59.542c1.928 8.915 4.499 17.831 5.785 27.383h-3.214c-1.286-3.821-2.571-8.279-5.142-12.1-3.214-4.458-9.642-8.279-16.712-9.552-4.499-0.637-8.999-0.637-12.855-0.637-3.214 0-6.428 0-9.642 0.637-5.785 0.637-10.927 3.184-10.927 10.189v86.607c0 9.552 5.785 9.552 12.213 9.552h3.214v3.821c-8.356 0-16.712-0.637-25.068-0.637-8.999 0-17.355 0.637-26.354 0.637v-3.821h1.928c5.785 0 13.498-1.274 13.498-10.189v-86.607c0-10.826-7.070-12.1-13.498-12.1h-1.928v-3.821c14.784 0 29.567 0.637 44.351 0.637 14.784 0.637 29.567 0 44.351 0v0zM1543.137-60.816c-14.784 0-30.21 0.637-44.994 0.637s-29.567-0.637-44.994-0.637h-0.643v6.368h3.214c6.428 0 12.213 0.637 12.213 10.826v86.607c0 8.279-5.785 8.915-12.213 8.915h-3.214v6.368h0.643c8.999 0 17.998-0.637 26.996-0.637 8.356 0 17.355 0.637 25.711 0.637h0.643v-6.368h-5.142c-6.428 0-10.927 0-10.927-8.279v-86.607c0-6.368 4.499-8.279 9.642-8.915 3.214 0 6.428 0 9.642 0 3.857 0 8.356 0 12.855 0.637 7.070 0.637 12.855 5.095 16.069 8.915 2.571 3.821 3.857 8.279 5.142 12.1v0.637h6.428v-0.637c-1.928-9.552-4.499-19.104-6.428-28.657l-0.643-1.91z" />
<glyph unicode="&#xe973;" horiz-adv-x="1638" d="M1544.423 44.259h1.928c2.571 0 3.214 1.91 3.214 4.458s-1.928 3.821-3.214 3.821h-1.928v-8.279zM1537.995 34.706v0.637c1.928 0 2.571 0 2.571 1.274v14.010c0 1.91 0 2.547-2.571 2.547v0.637h8.999c3.214 0 5.785-1.274 5.785-4.458 0-2.547-1.928-4.458-4.499-5.095l3.214-3.821c1.286-1.91 3.214-3.821 3.857-4.458v-0.637h-3.214c-1.928 0-3.214 3.184-6.428 8.279h-1.286v-5.731c0-1.274 0.643-1.274 2.571-1.274v-0.637h-8.999v-1.274zM1546.994 29.612c7.713 0 14.141 7.005 14.141 14.647s-5.785 14.647-14.141 14.647c-8.356 0-14.141-7.005-14.141-14.647s6.428-14.647 14.141-14.647v0zM1546.994 62.090c10.284 0 17.998-7.642 17.998-17.831s-7.713-17.831-17.998-17.831c-10.284 0-17.998 7.642-17.998 17.831 0 9.552 7.713 17.831 17.998 17.831v0z" />
<glyph unicode="&#xe974;" horiz-adv-x="1638" d="M493.416 656.885c0 156.959 129.58 284.051 290.26 284.051 160.032 0 289.612-127.092 289.612-284.051s-129.58-284.051-289.612-284.051c-160.68-0.635-290.26 127.092-290.26 284.051z" />
<glyph unicode="&#xe975;" horiz-adv-x="1638" d="M783.676 367.115c-165.863-0.635-302.57 131.54-302.57 291.677 0 175.387 136.707 297.396 302.57 296.76h77.748c163.919 0 314.232-121.373 314.232-296.76 0-160.772-149.665-291.677-314.232-291.677h-77.748zM784.324 932.040c-151.609 0-274.71-120.738-274.71-269.435s123.101-269.435 274.71-269.435c151.609 0 274.71 120.738 274.71 269.435s-122.453 269.435-274.71 269.435zM722.125 503.104v319.001c-65.438-24.783-111.439-86.423-112.087-159.501 0.648-73.078 46.649-134.718 112.087-159.501zM958.609 662.604c0 73.078-46.649 134.718-112.087 159.501v-319.001c65.438 24.148 112.087 86.423 112.087 159.501z" />
<glyph unicode="&#xe976;" horiz-adv-x="1638" d="M400.079 36.864c-3.615 3.584-8.264 6.656-13.429 8.704s-10.846 3.072-17.044 3.072c-3.099 0-6.714-0.512-10.33-1.024s-6.714-1.536-10.33-3.072c-3.099-1.536-6.714-3.584-9.297-5.632-3.099-2.56-5.681-5.632-7.747-9.216-3.615 6.144-8.264 10.752-14.462 13.824-6.198 3.584-13.429 5.12-21.176 5.12-2.582 0-5.165 0-8.264-0.512s-5.681-1.536-8.264-2.56c-2.582-1.024-5.681-2.56-8.264-4.608s-4.648-4.608-6.714-7.68v12.8h-22.209v-105.984h22.209v58.88c0 4.608 0.516 8.704 2.066 11.776 1.549 3.584 3.615 6.656 5.681 8.704 2.582 2.56 5.165 4.096 8.264 5.12s6.714 2.048 10.33 2.048c7.747 0 13.429-2.56 17.561-7.168s6.198-11.776 6.198-20.48v-58.88h22.726v58.88c0 4.608 0.516 8.704 2.066 11.776 1.549 3.584 3.615 6.656 5.681 8.704 2.582 2.56 5.165 4.096 8.264 5.12s6.714 2.048 10.33 2.048c7.747 0 13.429-2.56 17.561-7.168s6.198-11.776 6.198-20.48v-58.88h22.726v66.56c0 6.144-1.033 11.776-3.099 16.896-0.516 5.632-3.615 9.728-7.231 13.312z" />
<glyph unicode="&#xe977;" horiz-adv-x="1638" d="M519.388 33.28c-3.615 4.608-8.264 8.704-13.945 11.264-5.681 3.072-11.879 4.096-19.627 4.096s-14.462-1.536-21.176-4.096c-6.714-2.56-11.879-6.656-17.044-11.776-4.648-5.12-8.78-10.752-11.363-17.408s-4.132-14.336-4.132-22.528c0-8.192 1.549-15.36 4.132-22.528 2.582-6.656 6.714-12.8 11.363-17.408 4.648-5.12 10.33-8.704 17.044-11.776 6.714-2.56 13.429-4.096 21.176-4.096s14.462 1.536 19.627 4.096c5.681 2.56 10.33 6.656 13.945 11.264v-12.8h23.242v105.984h-23.242v-12.288zM518.872-20.48c-1.549-4.096-3.615-7.68-6.714-10.752-2.582-3.072-6.198-5.632-10.33-7.168s-8.264-2.56-12.912-2.56c-5.165 0-9.813 1.024-13.429 2.56-4.132 2.048-7.231 4.096-10.33 7.168-2.582 3.072-4.648 6.656-6.198 10.752s-2.066 8.704-2.066 13.312c0 4.608 0.516 9.216 2.066 13.312s3.615 7.68 6.198 10.752c2.582 3.072 6.198 5.632 10.33 7.168 4.132 2.048 8.264 2.56 13.429 2.56 4.648 0 9.297-1.024 12.912-2.56 4.132-1.536 7.231-4.096 10.33-7.168 2.582-3.072 5.165-6.656 6.714-10.752s2.582-8.704 2.582-13.312c0-4.608-1.033-9.216-2.582-13.312z" />
<glyph unicode="&#xe978;" horiz-adv-x="1638" d="M650.060-6.656c-6.714 5.12-15.495 8.192-27.374 10.24l-10.846 1.536c-2.582 0.512-4.648 1.024-6.714 1.024-2.066 0.512-4.132 1.024-5.681 2.048s-2.582 2.048-3.615 3.072c-1.033 1.024-1.549 2.56-1.549 4.608 0 3.584 1.549 6.656 5.165 9.216s8.264 3.584 14.978 3.584c3.099 0 6.714-0.512 9.813-1.024s6.198-1.536 9.297-2.048c3.099-1.024 5.681-2.048 7.747-3.072 2.582-1.024 4.132-2.048 6.198-3.072l9.813 17.92c-5.681 3.584-11.879 6.144-19.627 8.192-7.231 2.048-15.495 3.072-23.759 3.072-6.714 0-12.912-1.024-18.594-2.56s-9.813-3.584-13.945-6.656c-3.615-3.072-6.714-6.656-8.78-10.752s-3.099-8.704-3.099-14.336c0-8.704 3.099-15.36 9.297-20.48s14.978-8.704 26.858-10.24l11.363-1.536c6.198-1.024 10.846-2.56 13.945-4.096 3.099-2.048 4.648-4.608 4.648-7.68 0-4.096-2.066-7.168-6.198-9.216-4.132-2.56-10.33-3.584-18.077-3.584-4.132 0-8.264 0.512-11.879 1.024s-6.714 1.536-9.297 2.56c-3.099 1.024-5.681 2.048-7.747 3.584s-4.132 2.56-6.198 4.096l-10.846-17.408c3.615-3.072 7.747-5.12 12.396-7.168 4.132-1.536 8.264-3.072 12.396-4.096s7.747-1.536 11.363-2.048c3.615-0.512 6.714-0.512 9.813-0.512 7.747 0 14.462 1.024 20.66 2.56s11.363 4.096 15.495 7.168c4.132 3.072 7.231 6.656 9.297 10.752s3.099 8.704 3.099 13.824c0 9.216-3.099 16.384-9.813 21.504z" />
</font>
</defs>
</svg>
